<svg width="24" height="24" viewBox="0 0 24 24" fill="none" xmlns="http://www.w3.org/2000/svg">
<g clip-path="url(#clip0_940_65)">
<path d="M12 0C18.6265 0 24 5.37347 24 12C24 18.6265 18.6265 24 12 24C5.37347 24 0 18.6313 0 12C0 5.36869 5.37347 0 12 0ZM10.4145 3.6675C8.93494 3.67228 7.59516 6.05297 6.44334 10.7374C5.62894 10.7277 4.88194 10.7133 4.18312 10.7036H4.07719C3.99038 10.6987 3.90366 10.7036 3.81684 10.7133C3.42169 10.7855 3.13734 11.1325 3.13734 11.5326C3.13734 11.9422 3.441 12.294 3.84581 12.3566L3.85538 12.3663H6.0675C5.8654 13.2804 5.68703 14.1996 5.53256 15.1229L5.46506 15.5133V15.5325C5.46516 15.6249 5.48863 15.7158 5.53328 15.7967C5.57793 15.8775 5.64231 15.9458 5.72044 15.9952C5.97591 16.159 6.31809 16.082 6.48197 15.8265L6.49641 15.8409L7.58072 12.3663H12.8048C13.2048 13.8795 13.6192 15.4361 14.1687 16.9012C14.4626 17.6868 15.147 19.5181 16.294 19.5278H16.3085C18.0819 19.5278 18.776 16.6602 19.2338 14.7615C19.335 14.3518 19.4168 14 19.4988 13.7397L19.5325 13.6338L19.5374 13.6181C19.5749 13.4827 19.4984 13.338 19.3639 13.2916C19.2241 13.2434 19.0651 13.3157 19.0169 13.4603L18.9783 13.5662C18.8289 13.9855 18.6892 14.3759 18.5639 14.7277L18.5543 14.7566C17.7832 16.9301 17.4362 17.9229 16.747 17.9229H16.7036C15.8217 17.9229 14.9976 14.347 14.6843 13.0024C14.6313 12.7711 14.5831 12.5542 14.5349 12.3663H20.2217C20.3229 12.3663 20.4241 12.3422 20.5157 12.294L20.5201 12.2903C20.5264 12.2863 20.533 12.2827 20.5398 12.2796L20.5687 12.2603L20.5831 12.2506C20.5976 12.2409 20.6121 12.2313 20.6265 12.2168L20.6478 12.1992C20.7522 12.1084 20.8262 11.9816 20.8578 11.8506C20.9302 11.5084 20.7037 11.1711 20.3615 11.1037H20.3325C20.2988 11.0988 20.2699 11.094 20.2361 11.094L20.1494 11.0843C18.1398 10.9398 16.0722 10.8818 14.1301 10.8434L14.1253 10.8289C13.1856 7.28672 12.0047 3.6675 10.4145 3.6675ZM10.3518 5.26266C10.4337 5.26266 10.5109 5.31084 10.5783 5.39766C10.7422 5.65781 11.0313 6.24094 11.4603 7.53253C11.7542 8.41931 12.0723 9.52284 12.4096 10.8048C11.1278 10.7856 9.83616 10.771 8.58309 10.7566L7.947 10.7518C8.66512 7.947 9.53738 5.82169 10.1783 5.3205C10.2313 5.28675 10.2892 5.26266 10.3518 5.26266Z" fill="#4E87FF"/>
</g>
<defs>
<clipPath id="clip0_940_65">
<rect width="24" height="24" fill="white"/>
</clipPath>
</defs>
</svg>
