<svg width="654" height="1343" viewBox="0 0 654 1343" fill="none" xmlns="http://www.w3.org/2000/svg">
<rect x="0.5" y="374.5" width="653" height="593" rx="129.5" fill="white" fill-opacity="0.05" stroke="white" stroke-dasharray="10 10"/>
<line x1="103.973" y1="504.531" x2="310.78" y2="579.734" stroke="white"/>
<line x1="363.636" y1="552.657" x2="463.636" y2="446.657" stroke="white"/>
<line x1="402.937" y1="616.504" x2="496.937" y2="604.504" stroke="white"/>
<line x1="188.96" y1="632.502" x2="276.96" y2="625.502" stroke="white"/>
<line x1="389.493" y1="648.982" x2="559.37" y2="793.344" stroke="white"/>
<line x1="242.57" y1="789.745" x2="318.57" y2="661.745" stroke="white"/>
<path d="M309.523 723.851V737.851H312.523V732.171H317.643V729.711H312.523V726.431H318.763V723.851H309.523ZM321.619 737.331C322.439 737.771 323.399 737.971 324.479 737.971C325.559 737.971 326.499 737.771 327.319 737.331C328.139 736.891 328.779 736.291 329.219 735.491C329.659 734.691 329.899 733.771 329.899 732.711C329.899 731.671 329.659 730.751 329.219 729.951C328.779 729.151 328.139 728.551 327.319 728.111C326.499 727.671 325.559 727.451 324.479 727.451C323.399 727.451 322.439 727.671 321.619 728.111C320.799 728.551 320.159 729.151 319.719 729.951C319.279 730.751 319.059 731.671 319.059 732.711C319.059 733.751 319.279 734.671 319.719 735.471C320.159 736.271 320.799 736.891 321.619 737.331ZM326.339 734.851C325.879 735.411 325.259 735.671 324.479 735.671C323.699 735.671 323.079 735.411 322.619 734.851C322.159 734.311 321.939 733.591 321.939 732.711C321.939 731.831 322.159 731.131 322.619 730.571C323.079 730.031 323.699 729.751 324.479 729.751C325.259 729.751 325.879 730.031 326.339 730.571C326.799 731.131 327.039 731.831 327.039 732.711C327.039 733.591 326.799 734.311 326.339 734.851ZM341.131 727.571H338.311V732.631C338.311 733.591 338.111 734.331 337.731 734.851C337.331 735.371 336.791 735.631 336.091 735.631C335.411 735.631 334.891 735.411 334.571 734.931C334.251 734.451 334.091 733.751 334.091 732.811V727.571H331.271V733.151C331.271 734.891 331.651 736.131 332.411 736.871C333.171 737.611 334.151 737.971 335.351 737.971C336.031 737.971 336.631 737.851 337.111 737.611C337.591 737.371 338.011 737.051 338.371 736.611L338.631 737.851H341.131V727.571ZM351.952 728.571C351.172 727.831 350.192 727.451 348.992 727.451C348.232 727.451 347.612 727.591 347.112 727.831C346.592 728.071 346.172 728.411 345.812 728.851L345.552 727.571H343.092V737.851H345.912V732.591C345.912 731.711 346.112 731.011 346.512 730.511C346.912 730.031 347.472 729.771 348.212 729.771C349.592 729.771 350.292 730.671 350.292 732.431V737.851H353.112V732.271C353.112 730.551 352.712 729.331 351.952 728.571ZM365.169 723.851H362.349V728.851C361.609 727.931 360.569 727.451 359.249 727.451C358.329 727.451 357.509 727.671 356.789 728.111C356.069 728.551 355.489 729.151 355.089 729.951C354.689 730.751 354.489 731.651 354.489 732.691C354.489 733.751 354.689 734.671 355.089 735.471C355.489 736.271 356.069 736.891 356.789 737.331C357.509 737.771 358.309 737.971 359.229 737.971C360.569 737.971 361.629 737.471 362.429 736.431L362.709 737.851H365.169V723.851ZM361.709 734.871C361.249 735.411 360.649 735.671 359.889 735.671C359.129 735.671 358.509 735.411 358.049 734.851C357.589 734.311 357.369 733.591 357.369 732.711C357.369 731.831 357.589 731.131 358.049 730.571C358.509 730.031 359.129 729.751 359.889 729.751C360.649 729.751 361.249 730.031 361.709 730.571C362.149 731.131 362.389 731.851 362.389 732.731C362.389 733.611 362.149 734.331 361.709 734.871ZM367.375 729.951C366.935 730.751 366.735 731.671 366.735 732.731C366.735 733.791 366.955 734.711 367.395 735.511C367.835 736.311 368.475 736.911 369.315 737.331C370.155 737.771 371.135 737.971 372.295 737.971C373.175 737.971 373.955 737.831 374.635 737.511C375.315 737.191 375.855 736.771 376.275 736.211C376.675 735.671 376.935 735.051 377.055 734.371H374.275C374.155 734.851 373.895 735.231 373.515 735.471C373.135 735.711 372.655 735.831 372.095 735.831C371.375 735.831 370.795 735.631 370.395 735.191C369.975 734.771 369.735 734.191 369.675 733.431V733.351H377.135C377.175 733.071 377.215 732.751 377.215 732.391C377.195 731.391 376.955 730.531 376.515 729.791C376.075 729.051 375.455 728.471 374.655 728.071C373.855 727.671 372.955 727.451 371.915 727.451C370.875 727.451 369.975 727.671 369.195 728.111C368.415 728.551 367.815 729.151 367.375 729.951ZM374.395 731.511H369.735C369.815 730.911 370.055 730.451 370.475 730.091C370.895 729.731 371.415 729.551 372.035 729.551C372.675 729.551 373.195 729.731 373.615 730.071C374.035 730.411 374.295 730.891 374.395 731.511ZM385.016 727.571H384.536C383.776 727.571 383.156 727.711 382.716 727.971C382.256 728.231 381.876 728.611 381.576 729.111L381.316 727.571H378.756V737.851H381.576V732.811C381.576 731.991 381.756 731.331 382.136 730.851C382.496 730.371 383.096 730.131 383.896 730.131H385.016V727.571Z" fill="white"/>
<circle cx="346.868" cy="616.462" r="74.7026" fill="white" fill-opacity="0.1" stroke="white" stroke-dasharray="10 10"/>
<circle cx="346.868" cy="616.462" r="63.1164" fill="#0041C1"/>
<path d="M368.59 600.224H339.555C338.603 600.224 337.835 600.993 337.835 601.945V614.634H325.145C324.193 614.634 323.425 615.403 323.425 616.355V630.98C323.425 631.931 324.193 632.7 325.145 632.7H354.18C355.132 632.7 355.901 631.931 355.901 630.98V618.29H368.59C369.542 618.29 370.311 617.521 370.311 616.57V601.945C370.311 600.993 369.542 600.224 368.59 600.224ZM352.245 629.044H341.491V618.29H352.245V629.044ZM366.654 614.634H355.901V603.88H366.654V614.634Z" fill="white"/>
<path d="M189.957 880.703V894.703H192.957V889.023H198.077V886.563H192.957V883.283H199.197V880.703H189.957ZM202.053 894.183C202.873 894.623 203.833 894.823 204.913 894.823C205.993 894.823 206.933 894.623 207.753 894.183C208.573 893.743 209.213 893.143 209.653 892.343C210.093 891.543 210.333 890.623 210.333 889.563C210.333 888.523 210.093 887.603 209.653 886.803C209.213 886.003 208.573 885.403 207.753 884.963C206.933 884.523 205.993 884.303 204.913 884.303C203.833 884.303 202.873 884.523 202.053 884.963C201.233 885.403 200.593 886.003 200.153 886.803C199.713 887.603 199.493 888.523 199.493 889.563C199.493 890.603 199.713 891.523 200.153 892.323C200.593 893.123 201.233 893.743 202.053 894.183ZM206.773 891.703C206.313 892.263 205.693 892.523 204.913 892.523C204.133 892.523 203.513 892.263 203.053 891.703C202.593 891.163 202.373 890.443 202.373 889.563C202.373 888.683 202.593 887.983 203.053 887.423C203.513 886.883 204.133 886.603 204.913 886.603C205.693 886.603 206.313 886.883 206.773 887.423C207.233 887.983 207.473 888.683 207.473 889.563C207.473 890.443 207.233 891.163 206.773 891.703ZM221.565 884.423H218.745V889.483C218.745 890.443 218.545 891.183 218.165 891.703C217.765 892.223 217.225 892.483 216.525 892.483C215.845 892.483 215.325 892.263 215.005 891.783C214.685 891.303 214.525 890.603 214.525 889.663V884.423H211.705V890.003C211.705 891.743 212.085 892.983 212.845 893.723C213.605 894.463 214.585 894.823 215.785 894.823C216.465 894.823 217.065 894.703 217.545 894.463C218.025 894.223 218.445 893.903 218.805 893.463L219.065 894.703H221.565V884.423ZM232.386 885.423C231.606 884.683 230.626 884.303 229.426 884.303C228.666 884.303 228.046 884.443 227.546 884.683C227.026 884.923 226.606 885.263 226.246 885.703L225.986 884.423H223.526V894.703H226.346V889.443C226.346 888.563 226.546 887.863 226.946 887.363C227.346 886.883 227.906 886.623 228.646 886.623C230.026 886.623 230.726 887.523 230.726 889.283V894.703H233.546V889.123C233.546 887.403 233.146 886.183 232.386 885.423ZM245.603 880.703H242.783V885.703C242.043 884.783 241.003 884.303 239.683 884.303C238.763 884.303 237.943 884.523 237.223 884.963C236.503 885.403 235.923 886.003 235.523 886.803C235.123 887.603 234.923 888.503 234.923 889.543C234.923 890.603 235.123 891.523 235.523 892.323C235.923 893.123 236.503 893.743 237.223 894.183C237.943 894.623 238.743 894.823 239.663 894.823C241.003 894.823 242.063 894.323 242.863 893.283L243.143 894.703H245.603V880.703ZM242.143 891.723C241.683 892.263 241.083 892.523 240.323 892.523C239.563 892.523 238.943 892.263 238.483 891.703C238.023 891.163 237.803 890.443 237.803 889.563C237.803 888.683 238.023 887.983 238.483 887.423C238.943 886.883 239.563 886.603 240.323 886.603C241.083 886.603 241.683 886.883 242.143 887.423C242.583 887.983 242.823 888.703 242.823 889.583C242.823 890.463 242.583 891.183 242.143 891.723ZM247.809 886.803C247.369 887.603 247.169 888.523 247.169 889.583C247.169 890.643 247.389 891.563 247.829 892.363C248.269 893.163 248.909 893.763 249.749 894.183C250.589 894.623 251.569 894.823 252.729 894.823C253.609 894.823 254.389 894.683 255.069 894.363C255.749 894.043 256.289 893.623 256.709 893.063C257.109 892.523 257.369 891.903 257.489 891.223H254.709C254.589 891.703 254.329 892.083 253.949 892.323C253.569 892.563 253.089 892.683 252.529 892.683C251.809 892.683 251.229 892.483 250.829 892.043C250.409 891.623 250.169 891.043 250.109 890.283V890.203H257.569C257.609 889.923 257.649 889.603 257.649 889.243C257.629 888.243 257.389 887.383 256.949 886.643C256.509 885.903 255.889 885.323 255.089 884.923C254.289 884.523 253.389 884.303 252.349 884.303C251.309 884.303 250.409 884.523 249.629 884.963C248.849 885.403 248.249 886.003 247.809 886.803ZM254.829 888.363H250.169C250.249 887.763 250.489 887.303 250.909 886.943C251.329 886.583 251.849 886.403 252.469 886.403C253.109 886.403 253.629 886.583 254.049 886.923C254.469 887.263 254.729 887.743 254.829 888.363ZM265.45 884.423H264.97C264.21 884.423 263.59 884.563 263.15 884.823C262.69 885.083 262.31 885.463 262.01 885.963L261.75 884.423H259.19V894.703H262.01V889.663C262.01 888.843 262.19 888.183 262.57 887.703C262.93 887.223 263.53 886.983 264.33 886.983H265.45V884.423Z" fill="white"/>
<circle cx="227.63" cy="817.63" r="41.13" fill="white" fill-opacity="0.1" stroke="white" stroke-dasharray="10 10"/>
<circle cx="227.63" cy="817.63" r="34.9394" fill="#0041C1"/>
<path d="M238.104 809.237H223.866C223.399 809.237 223.022 809.614 223.022 810.08V816.303H216.799C216.332 816.303 215.955 816.68 215.955 817.147V824.319C215.955 824.785 216.332 825.162 216.799 825.162H231.037C231.504 825.162 231.881 824.785 231.881 824.319V818.096H238.104C238.571 818.096 238.948 817.719 238.948 817.252V810.08C238.948 809.614 238.571 809.237 238.104 809.237ZM230.088 823.369H224.815V818.096H230.088V823.369ZM237.155 816.303H231.881V811.03H237.155V816.303Z" fill="white"/>
<path d="M482.171 647.709V658.909H484.571V654.365H488.667V652.397H484.571V649.773H489.563V647.709H482.171ZM491.848 658.493C492.504 658.845 493.272 659.005 494.136 659.005C495 659.005 495.752 658.845 496.408 658.493C497.064 658.141 497.576 657.661 497.928 657.021C498.28 656.381 498.472 655.645 498.472 654.797C498.472 653.965 498.28 653.229 497.928 652.589C497.576 651.949 497.064 651.469 496.408 651.117C495.752 650.765 495 650.589 494.136 650.589C493.272 650.589 492.504 650.765 491.848 651.117C491.192 651.469 490.68 651.949 490.328 652.589C489.976 653.229 489.8 653.965 489.8 654.797C489.8 655.629 489.976 656.365 490.328 657.005C490.68 657.645 491.192 658.141 491.848 658.493ZM495.624 656.509C495.256 656.957 494.76 657.165 494.136 657.165C493.512 657.165 493.016 656.957 492.648 656.509C492.28 656.077 492.104 655.501 492.104 654.797C492.104 654.093 492.28 653.533 492.648 653.085C493.016 652.653 493.512 652.429 494.136 652.429C494.76 652.429 495.256 652.653 495.624 653.085C495.992 653.533 496.184 654.093 496.184 654.797C496.184 655.501 495.992 656.077 495.624 656.509ZM507.458 650.685H505.202V654.733C505.202 655.501 505.042 656.093 504.738 656.509C504.418 656.925 503.986 657.133 503.426 657.133C502.882 657.133 502.466 656.957 502.21 656.573C501.954 656.189 501.826 655.629 501.826 654.877V650.685H499.57V655.149C499.57 656.541 499.874 657.533 500.482 658.125C501.09 658.717 501.874 659.005 502.834 659.005C503.378 659.005 503.858 658.909 504.242 658.717C504.626 658.525 504.962 658.269 505.25 657.917L505.458 658.909H507.458V650.685ZM516.114 651.485C515.49 650.893 514.706 650.589 513.746 650.589C513.138 650.589 512.642 650.701 512.242 650.893C511.826 651.085 511.49 651.357 511.202 651.709L510.994 650.685H509.026V658.909H511.282V654.701C511.282 653.997 511.442 653.437 511.762 653.037C512.082 652.653 512.53 652.445 513.122 652.445C514.226 652.445 514.786 653.165 514.786 654.573V658.909H517.042V654.445C517.042 653.069 516.722 652.093 516.114 651.485ZM526.688 647.709H524.432V651.709C523.84 650.973 523.008 650.589 521.952 650.589C521.216 650.589 520.56 650.765 519.984 651.117C519.408 651.469 518.944 651.949 518.624 652.589C518.304 653.229 518.144 653.949 518.144 654.781C518.144 655.629 518.304 656.365 518.624 657.005C518.944 657.645 519.408 658.141 519.984 658.493C520.56 658.845 521.2 659.005 521.936 659.005C523.008 659.005 523.856 658.605 524.496 657.773L524.72 658.909H526.688V647.709ZM523.92 656.525C523.552 656.957 523.072 657.165 522.464 657.165C521.856 657.165 521.36 656.957 520.992 656.509C520.624 656.077 520.448 655.501 520.448 654.797C520.448 654.093 520.624 653.533 520.992 653.085C521.36 652.653 521.856 652.429 522.464 652.429C523.072 652.429 523.552 652.653 523.92 653.085C524.272 653.533 524.464 654.109 524.464 654.813C524.464 655.517 524.272 656.093 523.92 656.525ZM528.453 652.589C528.101 653.229 527.941 653.965 527.941 654.813C527.941 655.661 528.117 656.397 528.469 657.037C528.821 657.677 529.333 658.157 530.005 658.493C530.677 658.845 531.461 659.005 532.389 659.005C533.093 659.005 533.717 658.893 534.261 658.637C534.805 658.381 535.237 658.045 535.573 657.597C535.893 657.165 536.101 656.669 536.197 656.125H533.973C533.877 656.509 533.669 656.813 533.365 657.005C533.061 657.197 532.677 657.293 532.229 657.293C531.653 657.293 531.189 657.133 530.869 656.781C530.533 656.445 530.341 655.981 530.293 655.373V655.309H536.261C536.293 655.085 536.325 654.829 536.325 654.541C536.309 653.741 536.117 653.053 535.765 652.461C535.413 651.869 534.917 651.405 534.277 651.085C533.637 650.765 532.917 650.589 532.085 650.589C531.253 650.589 530.533 650.765 529.909 651.117C529.285 651.469 528.805 651.949 528.453 652.589ZM534.069 653.837H530.341C530.405 653.357 530.597 652.989 530.933 652.701C531.269 652.413 531.685 652.269 532.181 652.269C532.693 652.269 533.109 652.413 533.445 652.685C533.781 652.957 533.989 653.341 534.069 653.837ZM542.565 650.685H542.181C541.573 650.685 541.077 650.797 540.725 651.005C540.357 651.213 540.053 651.517 539.813 651.917L539.605 650.685H537.557V658.909H539.813V654.877C539.813 654.221 539.957 653.693 540.261 653.309C540.549 652.925 541.029 652.733 541.669 652.733H542.565V650.685Z" fill="white"/>
<circle cx="512.566" cy="605.385" r="26.87" fill="white" fill-opacity="0.1" stroke="white" stroke-dasharray="10 10"/>
<circle cx="512.566" cy="605.386" r="22.9713" fill="#0041C1"/>
<path d="M519.453 599.867H510.091C509.785 599.867 509.537 600.115 509.537 600.422V604.513H505.446C505.139 604.513 504.891 604.761 504.891 605.068V609.783C504.891 610.09 505.139 610.338 505.446 610.338H514.807C515.114 610.338 515.361 610.09 515.361 609.783V605.692H519.453C519.759 605.692 520.007 605.444 520.007 605.137V600.422C520.007 600.115 519.759 599.867 519.453 599.867ZM514.183 609.159H510.716V605.692H514.183V609.159ZM518.828 604.513H515.361V601.046H518.828V604.513Z" fill="white"/>
<path d="M145.023 674.694V685.894H147.423V674.694H145.023ZM156.231 678.47C155.607 677.878 154.823 677.574 153.863 677.574C153.255 677.574 152.759 677.686 152.359 677.878C151.943 678.07 151.607 678.342 151.319 678.694L151.111 677.67H149.143V685.894H151.399V681.686C151.399 680.982 151.559 680.422 151.879 680.022C152.199 679.638 152.647 679.43 153.239 679.43C154.343 679.43 154.903 680.15 154.903 681.558V685.894H157.159V681.43C157.159 680.054 156.839 679.078 156.231 678.47ZM157.5 677.67L160.46 685.894H163.26L166.22 677.67H163.852L161.9 683.59L159.916 677.67H157.5ZM166.851 679.574C166.499 680.214 166.339 680.95 166.339 681.798C166.339 682.646 166.515 683.382 166.867 684.022C167.219 684.662 167.731 685.142 168.403 685.478C169.075 685.83 169.859 685.99 170.787 685.99C171.491 685.99 172.115 685.878 172.659 685.622C173.203 685.366 173.635 685.03 173.971 684.582C174.291 684.15 174.499 683.654 174.595 683.11H172.371C172.275 683.494 172.067 683.798 171.763 683.99C171.459 684.182 171.075 684.278 170.627 684.278C170.051 684.278 169.587 684.118 169.267 683.766C168.931 683.43 168.739 682.966 168.691 682.358V682.294H174.659C174.691 682.07 174.723 681.814 174.723 681.526C174.707 680.726 174.515 680.038 174.163 679.446C173.811 678.854 173.315 678.39 172.675 678.07C172.035 677.75 171.315 677.574 170.483 677.574C169.651 677.574 168.931 677.75 168.307 678.102C167.683 678.454 167.203 678.934 166.851 679.574ZM172.467 680.822H168.739C168.803 680.342 168.995 679.974 169.331 679.686C169.667 679.398 170.083 679.254 170.579 679.254C171.091 679.254 171.507 679.398 171.843 679.67C172.179 679.942 172.387 680.326 172.467 680.822ZM177.733 683.158H175.589C175.621 684.038 176.005 684.726 176.725 685.238C177.429 685.75 178.357 685.99 179.509 685.99C180.245 685.99 180.885 685.894 181.445 685.67C182.005 685.446 182.437 685.142 182.757 684.726C183.077 684.326 183.237 683.862 183.237 683.318C183.237 682.486 182.933 681.894 182.341 681.542C181.749 681.19 180.901 680.95 179.797 680.822C179.269 680.774 178.901 680.726 178.677 680.678C178.453 680.646 178.261 680.566 178.133 680.47C177.989 680.374 177.925 680.23 177.925 680.038C177.925 679.782 178.053 679.558 178.309 679.398C178.565 679.238 178.917 679.158 179.349 679.158C179.797 679.158 180.181 679.27 180.469 679.462C180.757 679.654 180.933 679.91 180.965 680.214H183.109C183.045 679.382 182.677 678.742 181.989 678.262C181.301 677.798 180.405 677.558 179.285 677.542C178.581 677.542 177.973 677.654 177.445 677.878C176.901 678.102 176.485 678.422 176.197 678.838C175.909 679.254 175.765 679.718 175.765 680.246C175.765 680.79 175.909 681.206 176.197 681.526C176.485 681.846 176.869 682.086 177.349 682.23C177.829 682.39 178.421 682.502 179.157 682.598C179.685 682.662 180.069 682.726 180.309 682.774C180.533 682.822 180.725 682.902 180.853 682.998C180.981 683.11 181.045 683.27 181.045 683.478C181.045 683.766 180.901 683.99 180.629 684.15C180.341 684.31 179.973 684.374 179.493 684.374C178.981 684.374 178.581 684.262 178.261 684.038C177.941 683.814 177.765 683.526 177.733 683.158ZM185.062 679.574V683.542C185.062 685.11 185.846 685.894 187.414 685.894H189.286V683.99H188.118C187.83 683.99 187.622 683.926 187.494 683.798C187.366 683.67 187.318 683.462 187.318 683.174V679.574H189.19V677.67H187.318V675.366H185.062V677.67H183.702V679.574H185.062ZM191.84 685.478C192.496 685.83 193.264 685.99 194.128 685.99C194.992 685.99 195.744 685.83 196.4 685.478C197.056 685.126 197.568 684.646 197.92 684.006C198.272 683.366 198.464 682.63 198.464 681.782C198.464 680.95 198.272 680.214 197.92 679.574C197.568 678.934 197.056 678.454 196.4 678.102C195.744 677.75 194.992 677.574 194.128 677.574C193.264 677.574 192.496 677.75 191.84 678.102C191.184 678.454 190.672 678.934 190.32 679.574C189.968 680.214 189.792 680.95 189.792 681.782C189.792 682.614 189.968 683.35 190.32 683.99C190.672 684.63 191.184 685.126 191.84 685.478ZM195.616 683.494C195.248 683.942 194.752 684.15 194.128 684.15C193.504 684.15 193.008 683.942 192.64 683.494C192.272 683.062 192.096 682.486 192.096 681.782C192.096 681.078 192.272 680.518 192.64 680.07C193.008 679.638 193.504 679.414 194.128 679.414C194.752 679.414 195.248 679.638 195.616 680.07C195.984 680.518 196.176 681.078 196.176 681.782C196.176 682.486 195.984 683.062 195.616 683.494ZM204.714 677.67H204.33C203.722 677.67 203.226 677.782 202.874 677.99C202.506 678.198 202.202 678.502 201.962 678.902L201.754 677.67H199.706V685.894H201.962V681.862C201.962 681.206 202.106 680.678 202.41 680.294C202.698 679.91 203.178 679.718 203.818 679.718H204.714V677.67Z" fill="white"/>
<circle cx="174.566" cy="632.37" r="26.87" fill="white" fill-opacity="0.1" stroke="white" stroke-dasharray="10 10"/>
<circle cx="174.566" cy="632.37" r="22.9713" fill="#00A607"/>
<path d="M181.667 630.667V632.333C181.667 632.902 181.555 633.466 181.337 633.992C181.119 634.517 180.8 634.995 180.397 635.397C179.995 635.8 179.517 636.119 178.992 636.337C178.466 636.555 177.902 636.667 177.333 636.667H175.667V640H174.333V635.333L174.346 634.667C174.43 633.578 174.922 632.562 175.723 631.82C176.524 631.079 177.575 630.667 178.667 630.667H181.667ZM171 628C171.98 628 172.934 628.308 173.729 628.881C174.524 629.453 175.118 630.262 175.429 631.191C174.919 631.623 174.501 632.153 174.2 632.751C173.899 633.348 173.721 633.999 173.677 634.667H173C171.762 634.667 170.575 634.175 169.7 633.3C168.825 632.425 168.333 631.238 168.333 630V628H171Z" fill="white"/>
<path d="M32.9569 570.703V584.703H35.9569V579.023H41.0769V576.563H35.9569V573.283H42.1969V570.703H32.9569ZM45.0531 584.183C45.8731 584.623 46.8331 584.823 47.9131 584.823C48.9931 584.823 49.9331 584.623 50.7531 584.183C51.5731 583.743 52.2131 583.143 52.6531 582.343C53.0931 581.543 53.3331 580.623 53.3331 579.563C53.3331 578.523 53.0931 577.603 52.6531 576.803C52.2131 576.003 51.5731 575.403 50.7531 574.963C49.9331 574.523 48.9931 574.303 47.9131 574.303C46.8331 574.303 45.8731 574.523 45.0531 574.963C44.2331 575.403 43.5931 576.003 43.1531 576.803C42.7131 577.603 42.4931 578.523 42.4931 579.563C42.4931 580.603 42.7131 581.523 43.1531 582.323C43.5931 583.123 44.2331 583.743 45.0531 584.183ZM49.7731 581.703C49.3131 582.263 48.6931 582.523 47.9131 582.523C47.1331 582.523 46.5131 582.263 46.0531 581.703C45.5931 581.163 45.3731 580.443 45.3731 579.563C45.3731 578.683 45.5931 577.983 46.0531 577.423C46.5131 576.883 47.1331 576.603 47.9131 576.603C48.6931 576.603 49.3131 576.883 49.7731 577.423C50.2331 577.983 50.4731 578.683 50.4731 579.563C50.4731 580.443 50.2331 581.163 49.7731 581.703ZM64.5653 574.423H61.7453V579.483C61.7453 580.443 61.5453 581.183 61.1653 581.703C60.7653 582.223 60.2253 582.483 59.5253 582.483C58.8453 582.483 58.3253 582.263 58.0053 581.783C57.6853 581.303 57.5253 580.603 57.5253 579.663V574.423H54.7053V580.003C54.7053 581.743 55.0853 582.983 55.8453 583.723C56.6053 584.463 57.5853 584.823 58.7853 584.823C59.4653 584.823 60.0653 584.703 60.5453 584.463C61.0253 584.223 61.4453 583.903 61.8053 583.463L62.0653 584.703H64.5653V574.423ZM75.386 575.423C74.606 574.683 73.626 574.303 72.426 574.303C71.666 574.303 71.046 574.443 70.546 574.683C70.026 574.923 69.606 575.263 69.246 575.703L68.986 574.423H66.526V584.703H69.346V579.443C69.346 578.563 69.546 577.863 69.946 577.363C70.346 576.883 70.906 576.623 71.646 576.623C73.026 576.623 73.726 577.523 73.726 579.283V584.703H76.546V579.123C76.546 577.403 76.146 576.183 75.386 575.423ZM88.6028 570.703H85.7828V575.703C85.0428 574.783 84.0028 574.303 82.6828 574.303C81.7628 574.303 80.9428 574.523 80.2228 574.963C79.5028 575.403 78.9228 576.003 78.5228 576.803C78.1228 577.603 77.9228 578.503 77.9228 579.543C77.9228 580.603 78.1228 581.523 78.5228 582.323C78.9228 583.123 79.5028 583.743 80.2228 584.183C80.9428 584.623 81.7428 584.823 82.6628 584.823C84.0028 584.823 85.0628 584.323 85.8628 583.283L86.1428 584.703H88.6028V570.703ZM85.1428 581.723C84.6828 582.263 84.0828 582.523 83.3228 582.523C82.5628 582.523 81.9428 582.263 81.4828 581.703C81.0228 581.163 80.8028 580.443 80.8028 579.563C80.8028 578.683 81.0228 577.983 81.4828 577.423C81.9428 576.883 82.5628 576.603 83.3228 576.603C84.0828 576.603 84.6828 576.883 85.1428 577.423C85.5828 577.983 85.8228 578.703 85.8228 579.583C85.8228 580.463 85.5828 581.183 85.1428 581.723ZM90.8089 576.803C90.3689 577.603 90.1689 578.523 90.1689 579.583C90.1689 580.643 90.3889 581.563 90.8289 582.363C91.2689 583.163 91.9089 583.763 92.7489 584.183C93.5889 584.623 94.5689 584.823 95.7289 584.823C96.6089 584.823 97.3889 584.683 98.0689 584.363C98.7489 584.043 99.2889 583.623 99.7089 583.063C100.109 582.523 100.369 581.903 100.489 581.223H97.7089C97.5889 581.703 97.3289 582.083 96.9489 582.323C96.5689 582.563 96.0889 582.683 95.5289 582.683C94.8089 582.683 94.2289 582.483 93.8289 582.043C93.4089 581.623 93.1689 581.043 93.1089 580.283V580.203H100.569C100.609 579.923 100.649 579.603 100.649 579.243C100.629 578.243 100.389 577.383 99.9489 576.643C99.5089 575.903 98.8889 575.323 98.0889 574.923C97.2889 574.523 96.3889 574.303 95.3489 574.303C94.3089 574.303 93.4089 574.523 92.6289 574.963C91.8489 575.403 91.2489 576.003 90.8089 576.803ZM97.8289 578.363H93.1689C93.2489 577.763 93.4889 577.303 93.9089 576.943C94.3289 576.583 94.8489 576.403 95.4689 576.403C96.1089 576.403 96.6289 576.583 97.0489 576.923C97.4689 577.263 97.7289 577.743 97.8289 578.363ZM108.45 574.423H107.97C107.21 574.423 106.59 574.563 106.15 574.823C105.69 575.083 105.31 575.463 105.01 575.963L104.75 574.423H102.19V584.703H105.01V579.663C105.01 578.843 105.19 578.183 105.57 577.703C105.93 577.223 106.53 576.983 107.33 576.983H108.45V574.423Z" fill="white"/>
<circle cx="70.63" cy="507.63" r="41.13" fill="white" fill-opacity="0.1" stroke="white" stroke-dasharray="10 10"/>
<circle cx="70.63" cy="507.63" r="34.9394" fill="#0041C1"/>
<path d="M81.1038 499.237H66.8655C66.3988 499.237 66.0218 499.614 66.0218 500.08V506.303H59.7991C59.3324 506.303 58.9554 506.68 58.9554 507.147V514.319C58.9554 514.785 59.3324 515.162 59.7991 515.162H74.0374C74.5041 515.162 74.8812 514.785 74.8812 514.319V508.096H81.1038C81.5705 508.096 81.9476 507.719 81.9476 507.252V500.08C81.9476 499.614 81.5705 499.237 81.1038 499.237ZM73.0882 513.369H67.8148V508.096H73.0882V513.369ZM80.1546 506.303H74.8812V501.03H80.1546V506.303Z" fill="white"/>
<path d="M537.927 865.527V879.527H540.927V865.527H537.927ZM551.939 870.247C551.159 869.507 550.179 869.127 548.979 869.127C548.219 869.127 547.599 869.267 547.099 869.507C546.579 869.747 546.159 870.087 545.799 870.527L545.539 869.247H543.079V879.527H545.899V874.267C545.899 873.387 546.099 872.687 546.499 872.187C546.899 871.707 547.459 871.447 548.199 871.447C549.579 871.447 550.279 872.347 550.279 874.107V879.527H553.099V873.947C553.099 872.227 552.699 871.007 551.939 870.247ZM553.524 869.247L557.224 879.527H560.724L564.424 869.247H561.464L559.024 876.647L556.544 869.247H553.524ZM565.213 871.627C564.773 872.427 564.573 873.347 564.573 874.407C564.573 875.467 564.793 876.387 565.233 877.187C565.673 877.987 566.313 878.587 567.153 879.007C567.993 879.447 568.973 879.647 570.133 879.647C571.013 879.647 571.793 879.507 572.473 879.187C573.153 878.867 573.693 878.447 574.113 877.887C574.513 877.347 574.773 876.727 574.893 876.047H572.113C571.993 876.527 571.733 876.907 571.353 877.147C570.973 877.387 570.493 877.507 569.933 877.507C569.213 877.507 568.633 877.307 568.233 876.867C567.813 876.447 567.573 875.867 567.513 875.107V875.027H574.973C575.013 874.747 575.053 874.427 575.053 874.067C575.033 873.067 574.793 872.207 574.353 871.467C573.913 870.727 573.293 870.147 572.493 869.747C571.693 869.347 570.793 869.127 569.753 869.127C568.713 869.127 567.813 869.347 567.033 869.787C566.253 870.227 565.653 870.827 565.213 871.627ZM572.233 873.187H567.573C567.653 872.587 567.893 872.127 568.313 871.767C568.733 871.407 569.253 871.227 569.873 871.227C570.513 871.227 571.033 871.407 571.453 871.747C571.873 872.087 572.133 872.567 572.233 873.187ZM578.816 876.107H576.136C576.176 877.207 576.656 878.067 577.556 878.707C578.436 879.347 579.596 879.647 581.036 879.647C581.956 879.647 582.756 879.527 583.456 879.247C584.156 878.967 584.696 878.587 585.096 878.067C585.496 877.567 585.696 876.987 585.696 876.307C585.696 875.267 585.316 874.527 584.576 874.087C583.836 873.647 582.776 873.347 581.396 873.187C580.736 873.127 580.276 873.067 579.996 873.007C579.716 872.967 579.476 872.867 579.316 872.747C579.136 872.627 579.056 872.447 579.056 872.207C579.056 871.887 579.216 871.607 579.536 871.407C579.856 871.207 580.296 871.107 580.836 871.107C581.396 871.107 581.876 871.247 582.236 871.487C582.596 871.727 582.816 872.047 582.856 872.427H585.536C585.456 871.387 584.996 870.587 584.136 869.987C583.276 869.407 582.156 869.107 580.756 869.087C579.876 869.087 579.116 869.227 578.456 869.507C577.776 869.787 577.256 870.187 576.896 870.707C576.536 871.227 576.356 871.807 576.356 872.467C576.356 873.147 576.536 873.667 576.896 874.067C577.256 874.467 577.736 874.767 578.336 874.947C578.936 875.147 579.676 875.287 580.596 875.407C581.256 875.487 581.736 875.567 582.036 875.627C582.316 875.687 582.556 875.787 582.716 875.907C582.876 876.047 582.956 876.247 582.956 876.507C582.956 876.867 582.776 877.147 582.436 877.347C582.076 877.547 581.616 877.627 581.016 877.627C580.376 877.627 579.876 877.487 579.476 877.207C579.076 876.927 578.856 876.567 578.816 876.107ZM587.977 871.627V876.587C587.977 878.547 588.957 879.527 590.917 879.527H593.257V877.147H591.797C591.437 877.147 591.177 877.067 591.017 876.907C590.857 876.747 590.797 876.487 590.797 876.127V871.627H593.137V869.247H590.797V866.367H587.977V869.247H586.277V871.627H587.977ZM596.449 879.007C597.269 879.447 598.229 879.647 599.309 879.647C600.389 879.647 601.329 879.447 602.149 879.007C602.969 878.567 603.609 877.967 604.049 877.167C604.489 876.367 604.729 875.447 604.729 874.387C604.729 873.347 604.489 872.427 604.049 871.627C603.609 870.827 602.969 870.227 602.149 869.787C601.329 869.347 600.389 869.127 599.309 869.127C598.229 869.127 597.269 869.347 596.449 869.787C595.629 870.227 594.989 870.827 594.549 871.627C594.109 872.427 593.889 873.347 593.889 874.387C593.889 875.427 594.109 876.347 594.549 877.147C594.989 877.947 595.629 878.567 596.449 879.007ZM601.169 876.527C600.709 877.087 600.089 877.347 599.309 877.347C598.529 877.347 597.909 877.087 597.449 876.527C596.989 875.987 596.769 875.267 596.769 874.387C596.769 873.507 596.989 872.807 597.449 872.247C597.909 871.707 598.529 871.427 599.309 871.427C600.089 871.427 600.709 871.707 601.169 872.247C601.629 872.807 601.869 873.507 601.869 874.387C601.869 875.267 601.629 875.987 601.169 876.527ZM612.542 869.247H612.062C611.302 869.247 610.682 869.387 610.242 869.647C609.782 869.907 609.402 870.287 609.102 870.787L608.842 869.247H606.282V879.527H609.102V874.487C609.102 873.667 609.282 873.007 609.662 872.527C610.022 872.047 610.622 871.807 611.422 871.807H612.542V869.247Z" fill="white"/>
<circle cx="575.161" cy="802.454" r="41.13" fill="white" fill-opacity="0.1" stroke="white" stroke-dasharray="10 10"/>
<circle cx="575.161" cy="802.454" r="34.9394" fill="#00A607"/>
<path d="M585.233 797.418V799.936C585.233 800.796 585.064 801.647 584.735 802.441C584.406 803.236 583.923 803.957 583.315 804.565C582.708 805.173 581.986 805.655 581.192 805.984C580.397 806.313 579.546 806.483 578.686 806.483H576.168V811.519H574.154V804.468L574.173 803.461C574.3 801.817 575.043 800.281 576.253 799.161C577.463 798.04 579.051 797.418 580.701 797.418H585.233ZM569.118 793.389C570.598 793.39 572.04 793.855 573.241 794.72C574.442 795.585 575.34 796.806 575.809 798.21C575.038 798.863 574.407 799.664 573.952 800.567C573.498 801.469 573.229 802.453 573.163 803.461H572.14C570.27 803.461 568.476 802.718 567.154 801.396C565.832 800.074 565.089 798.281 565.089 796.411V793.389H569.118Z" fill="white"/>
<path d="M453.396 509.703V523.703H456.396V509.703H453.396ZM467.407 514.423C466.627 513.683 465.647 513.303 464.447 513.303C463.687 513.303 463.067 513.443 462.567 513.683C462.047 513.923 461.627 514.263 461.267 514.703L461.007 513.423H458.547V523.703H461.367V518.443C461.367 517.563 461.567 516.863 461.967 516.363C462.367 515.883 462.927 515.623 463.667 515.623C465.047 515.623 465.747 516.523 465.747 518.283V523.703H468.567V518.123C468.567 516.403 468.167 515.183 467.407 514.423ZM468.993 513.423L472.693 523.703H476.193L479.893 513.423H476.933L474.493 520.823L472.013 513.423H468.993ZM480.682 515.803C480.242 516.603 480.042 517.523 480.042 518.583C480.042 519.643 480.262 520.563 480.702 521.363C481.142 522.163 481.782 522.763 482.622 523.183C483.462 523.623 484.442 523.823 485.602 523.823C486.482 523.823 487.262 523.683 487.942 523.363C488.622 523.043 489.162 522.623 489.582 522.063C489.982 521.523 490.242 520.903 490.362 520.223H487.582C487.462 520.703 487.202 521.083 486.822 521.323C486.442 521.563 485.962 521.683 485.402 521.683C484.682 521.683 484.102 521.483 483.702 521.043C483.282 520.623 483.042 520.043 482.982 519.283V519.203H490.442C490.482 518.923 490.522 518.603 490.522 518.243C490.502 517.243 490.262 516.383 489.822 515.643C489.382 514.903 488.762 514.323 487.962 513.923C487.162 513.523 486.262 513.303 485.222 513.303C484.182 513.303 483.282 513.523 482.502 513.963C481.722 514.403 481.122 515.003 480.682 515.803ZM487.702 517.363H483.042C483.122 516.763 483.362 516.303 483.782 515.943C484.202 515.583 484.722 515.403 485.342 515.403C485.982 515.403 486.502 515.583 486.922 515.923C487.342 516.263 487.602 516.743 487.702 517.363ZM494.285 520.283H491.605C491.645 521.383 492.125 522.243 493.025 522.883C493.905 523.523 495.065 523.823 496.505 523.823C497.425 523.823 498.225 523.703 498.925 523.423C499.625 523.143 500.165 522.763 500.565 522.243C500.965 521.743 501.165 521.163 501.165 520.483C501.165 519.443 500.785 518.703 500.045 518.263C499.305 517.823 498.245 517.523 496.865 517.363C496.205 517.303 495.745 517.243 495.465 517.183C495.185 517.143 494.945 517.043 494.785 516.923C494.605 516.803 494.525 516.623 494.525 516.383C494.525 516.063 494.685 515.783 495.005 515.583C495.325 515.383 495.765 515.283 496.305 515.283C496.865 515.283 497.345 515.423 497.705 515.663C498.065 515.903 498.285 516.223 498.325 516.603H501.005C500.925 515.563 500.465 514.763 499.605 514.163C498.745 513.583 497.625 513.283 496.225 513.263C495.345 513.263 494.585 513.403 493.925 513.683C493.245 513.963 492.725 514.363 492.365 514.883C492.005 515.403 491.825 515.983 491.825 516.643C491.825 517.323 492.005 517.843 492.365 518.243C492.725 518.643 493.205 518.943 493.805 519.123C494.405 519.323 495.145 519.463 496.065 519.583C496.725 519.663 497.205 519.743 497.505 519.803C497.785 519.863 498.025 519.963 498.185 520.083C498.345 520.223 498.425 520.423 498.425 520.683C498.425 521.043 498.245 521.323 497.905 521.523C497.545 521.723 497.085 521.803 496.485 521.803C495.845 521.803 495.345 521.663 494.945 521.383C494.545 521.103 494.325 520.743 494.285 520.283ZM503.446 515.803V520.763C503.446 522.723 504.426 523.703 506.386 523.703H508.726V521.323H507.266C506.906 521.323 506.646 521.243 506.486 521.083C506.326 520.923 506.266 520.663 506.266 520.303V515.803H508.606V513.423H506.266V510.543H503.446V513.423H501.746V515.803H503.446ZM511.918 523.183C512.738 523.623 513.698 523.823 514.778 523.823C515.858 523.823 516.798 523.623 517.618 523.183C518.438 522.743 519.078 522.143 519.518 521.343C519.958 520.543 520.198 519.623 520.198 518.563C520.198 517.523 519.958 516.603 519.518 515.803C519.078 515.003 518.438 514.403 517.618 513.963C516.798 513.523 515.858 513.303 514.778 513.303C513.698 513.303 512.738 513.523 511.918 513.963C511.098 514.403 510.458 515.003 510.018 515.803C509.578 516.603 509.358 517.523 509.358 518.563C509.358 519.603 509.578 520.523 510.018 521.323C510.458 522.123 511.098 522.743 511.918 523.183ZM516.638 520.703C516.178 521.263 515.558 521.523 514.778 521.523C513.998 521.523 513.378 521.263 512.918 520.703C512.458 520.163 512.238 519.443 512.238 518.563C512.238 517.683 512.458 516.983 512.918 516.423C513.378 515.883 513.998 515.603 514.778 515.603C515.558 515.603 516.178 515.883 516.638 516.423C517.098 516.983 517.338 517.683 517.338 518.563C517.338 519.443 517.098 520.163 516.638 520.703ZM528.011 513.423H527.531C526.771 513.423 526.151 513.563 525.711 513.823C525.251 514.083 524.871 514.463 524.571 514.963L524.311 513.423H521.751V523.703H524.571V518.663C524.571 517.843 524.751 517.183 525.131 516.703C525.491 516.223 526.091 515.983 526.891 515.983H528.011V513.423Z" fill="white"/>
<circle cx="490.63" cy="446.63" r="41.13" fill="white" fill-opacity="0.1" stroke="white" stroke-dasharray="10 10"/>
<circle cx="490.63" cy="446.63" r="34.9394" fill="#00A607"/>
<path d="M500.702 441.594V444.112C500.702 444.972 500.532 445.823 500.203 446.617C499.874 447.412 499.392 448.133 498.784 448.741C498.176 449.349 497.455 449.831 496.66 450.16C495.866 450.489 495.015 450.659 494.155 450.659H491.637V455.695H489.623V448.644L489.642 447.637C489.769 445.993 490.512 444.457 491.722 443.337C492.932 442.216 494.52 441.594 496.169 441.594H500.702ZM484.587 437.565C486.067 437.566 487.509 438.031 488.71 438.896C489.911 439.761 490.809 440.982 491.278 442.386C490.507 443.039 489.875 443.84 489.421 444.743C488.966 445.645 488.698 446.629 488.632 447.637H487.608C485.739 447.637 483.945 446.894 482.623 445.572C481.301 444.25 480.558 442.457 480.558 440.587V437.565H484.587Z" fill="white"/>
<path d="M285.252 257.292H256.217C255.265 257.292 254.496 258.06 254.496 259.012V271.701H241.807C240.855 271.701 240.086 272.47 240.086 273.422V288.047C240.086 288.999 240.855 289.768 241.807 289.768H270.842C271.794 289.768 272.563 288.999 272.563 288.047V275.358H285.252C286.204 275.358 286.973 274.589 286.973 273.637V259.012C286.973 258.06 286.204 257.292 285.252 257.292ZM268.906 286.111H258.153V275.358H268.906V286.111ZM283.316 271.701H272.563V260.948H283.316V271.701Z" fill="white"/>
<path d="M411.311 257.292H382.276C381.324 257.292 380.555 258.06 380.555 259.012V271.701H367.866C366.914 271.701 366.146 272.47 366.146 273.422V288.047C366.146 288.999 366.914 289.768 367.866 289.768H396.901C397.853 289.768 398.622 288.999 398.622 288.047V275.358H411.311C412.263 275.358 413.032 274.589 413.032 273.637V259.012C413.032 258.06 412.263 257.292 411.311 257.292ZM394.965 286.111H384.212V275.358H394.965V286.111ZM409.375 271.701H398.622V260.948H409.375V271.701Z" fill="white"/>
<line x1="325.5" y1="41.4038" x2="325.5" y2="374.404" stroke="white"/>
<path d="M316 318.404L326 328.404L336 318.404" stroke="white"/>
<path d="M316 311.261L326 321.261L336 311.261" stroke="white"/>
<path d="M316 248.404L326 258.404L336 248.404" stroke="white"/>
<path d="M316 241.261L326 251.261L336 241.261" stroke="white"/>
<path d="M316 187.404L326 197.404L336 187.404" stroke="white"/>
<path d="M316 180.261L326 190.261L336 180.261" stroke="white"/>
<circle cx="329.203" cy="75.2026" r="74.7026" fill="white" fill-opacity="0.1" stroke="white" stroke-dasharray="10 10"/>
<circle cx="329.116" cy="75.1164" r="63.1164" fill="#0041C1"/>
<path d="M286 86.209H290.395L292.796 79.857H303.397L305.835 86.209H310.378L300.738 60.5075H295.677L286 86.209ZM293.978 76.2588L298.078 65.0603L302.215 76.2588H293.978Z" fill="white"/>
<path d="M313.409 67.4101H310.122V70.8982H313.409V86.209H317.436V70.8982H322.496V67.4101H317.436V65.8313C317.436 65.2072 317.546 64.7298 317.842 64.4361C318.137 64.1424 318.581 63.9955 319.245 63.9955H322.533V60.5075H318.691C316.882 60.5075 315.552 60.9481 314.702 61.7925C313.816 62.637 313.409 63.8854 313.409 65.5376V67.4101Z" fill="white"/>
<path d="M324.491 62.1597V81.1054C324.491 82.8678 324.897 84.1528 325.71 84.9606C326.522 85.8051 327.815 86.209 329.625 86.209H333.466V82.7209H330.438C329.699 82.7209 329.219 82.574 328.923 82.2803C328.628 81.9866 328.48 81.4358 328.48 80.7015V70.8982H333.06V67.4101H328.48V62.1597H324.491Z" fill="white"/>
<path d="M335.683 71.7794C334.908 73.2481 334.538 74.937 334.538 76.8463C334.538 78.7555 334.908 80.4445 335.72 81.8764C336.533 83.3451 337.641 84.4466 339.118 85.2543C340.596 86.0621 342.295 86.4293 344.29 86.4293C346.543 86.4293 348.426 85.8418 349.941 84.5934C351.455 83.3818 352.379 81.803 352.748 79.8937H348.759C348.463 80.9585 347.909 81.7663 347.097 82.3537C346.247 82.9412 345.213 83.1982 343.994 83.1982C342.443 83.1982 341.187 82.7209 340.263 81.7663C339.303 80.8116 338.786 79.5266 338.712 77.8743V77.654H352.97C353.044 77.14 353.081 76.6627 353.081 76.1487C353.044 74.3496 352.637 72.7707 351.825 71.4122C351.012 70.0904 349.941 69.0257 348.537 68.2913C347.134 67.557 345.545 67.1899 343.735 67.1899C341.926 67.1899 340.337 67.5937 338.934 68.4015C337.53 69.2093 336.459 70.3107 335.683 71.7794ZM349.017 74.7534H338.86C339.008 73.4316 339.525 72.4036 340.485 71.5958C341.445 70.7881 342.554 70.3842 343.883 70.3842C345.287 70.3842 346.432 70.7881 347.355 71.5591C348.279 72.3301 348.833 73.3949 349.017 74.7534Z" fill="white"/>
<path d="M366.759 67.4101H365.872C364.395 67.4101 363.25 67.6672 362.4 68.1812C361.514 68.6952 360.812 69.3561 360.295 70.2373L359.852 67.4101H356.306V86.209H360.295V76.7728C360.295 75.1573 360.664 73.7988 361.403 72.734C362.142 71.6693 363.324 71.1185 364.986 71.1185H366.759V67.4101Z" fill="white"/>
<path d="M367.568 82.1334C367.087 82.6107 366.866 83.1982 366.866 83.9325C366.866 84.6669 367.087 85.291 367.568 85.7316C368.048 86.209 368.676 86.4293 369.414 86.4293C370.153 86.4293 370.744 86.209 371.261 85.7316C371.741 85.291 372 84.6669 372 83.9325C372 83.1982 371.741 82.6107 371.261 82.1334C370.744 81.6928 370.153 81.4358 369.414 81.4358C368.676 81.4358 368.048 81.6928 367.568 82.1334Z" fill="white"/>
<path d="M352.806 55H369.428V57.4478H352.806V55Z" fill="white"/>
<path d="M290.014 93.5522H306.635V96H290.014V93.5522Z" fill="white"/>
<path d="M367.748 1116.77L396.783 1116.77C397.735 1116.77 398.504 1116 398.504 1115.05L398.504 1102.36L411.193 1102.36C412.145 1102.36 412.914 1101.59 412.914 1100.64L412.914 1086.01C412.914 1085.06 412.145 1084.29 411.193 1084.29L382.158 1084.29C381.206 1084.29 380.437 1085.06 380.437 1086.01L380.437 1098.7L367.748 1098.7C366.796 1098.7 366.027 1099.47 366.027 1100.42L366.027 1115.05C366.027 1116 366.796 1116.77 367.748 1116.77ZM384.094 1087.95L394.847 1087.95L394.847 1098.7L384.094 1098.7L384.094 1087.95ZM369.684 1102.36L380.437 1102.36L380.437 1113.11L369.684 1113.11L369.684 1102.36Z" fill="white"/>
<path d="M241.748 1116.77L270.783 1116.77C271.735 1116.77 272.504 1116 272.504 1115.05L272.504 1102.36L285.193 1102.36C286.145 1102.36 286.914 1101.59 286.914 1100.64L286.914 1086.01C286.914 1085.06 286.145 1084.29 285.193 1084.29L256.158 1084.29C255.206 1084.29 254.437 1085.06 254.437 1086.01L254.437 1098.7L241.748 1098.7C240.796 1098.7 240.027 1099.47 240.027 1100.42L240.027 1115.05C240.027 1116 240.796 1116.77 241.748 1116.77ZM258.094 1087.95L268.847 1087.95L268.847 1098.7L258.094 1098.7L258.094 1087.95ZM243.684 1102.36L254.437 1102.36L254.437 1113.11L243.684 1113.11L243.684 1102.36Z" fill="white"/>
<line x1="327.5" y1="1301" x2="327.5" y2="968.001" stroke="white"/>
<path d="M337 1024L327 1014L317 1024" stroke="white"/>
<path d="M337 1031.14L327 1021.14L317 1031.14" stroke="white"/>
<path d="M337 1094L327 1084L317 1094" stroke="white"/>
<path d="M337 1101.14L327 1091.14L317 1101.14" stroke="white"/>
<path d="M337 1155L327 1145L317 1155" stroke="white"/>
<path d="M337 1162.14L327 1152.14L317 1162.14" stroke="white"/>
<circle cx="323.797" cy="1267.2" r="74.7026" fill="white" fill-opacity="0.1" stroke="white" stroke-dasharray="10 10"/>
<circle cx="323.711" cy="1267.12" r="63.1164" fill="#0041C1"/>
<path d="M280.595 1278.21H284.99L287.391 1271.86H297.992L300.43 1278.21H304.973L295.333 1252.51H290.272L280.595 1278.21ZM288.573 1268.26L292.673 1257.06L296.81 1268.26H288.573Z" fill="white"/>
<path d="M308.004 1259.41H304.717V1262.9H308.004V1278.21H312.03V1262.9H317.091V1259.41H312.03V1257.83C312.03 1257.21 312.141 1256.73 312.437 1256.44C312.732 1256.14 313.175 1256 313.84 1256H317.128V1252.51H313.286C311.476 1252.51 310.147 1252.95 309.297 1253.79C308.411 1254.64 308.004 1255.89 308.004 1257.54V1259.41Z" fill="white"/>
<path d="M319.086 1254.16V1273.11C319.086 1274.87 319.492 1276.15 320.305 1276.96C321.117 1277.81 322.41 1278.21 324.22 1278.21H328.061V1274.72H325.032C324.294 1274.72 323.814 1274.58 323.518 1274.28C323.223 1273.99 323.075 1273.44 323.075 1272.7V1262.9H327.655V1259.41H323.075V1254.16H319.086Z" fill="white"/>
<path d="M330.278 1263.78C329.502 1265.25 329.133 1266.94 329.133 1268.85C329.133 1270.76 329.502 1272.45 330.315 1273.88C331.128 1275.35 332.236 1276.45 333.713 1277.26C335.191 1278.06 336.89 1278.43 338.884 1278.43C341.138 1278.43 343.021 1277.84 344.536 1276.59C346.05 1275.38 346.974 1273.8 347.343 1271.89H343.354C343.058 1272.96 342.504 1273.77 341.692 1274.35C340.842 1274.94 339.808 1275.2 338.589 1275.2C337.038 1275.2 335.782 1274.72 334.858 1273.77C333.898 1272.81 333.381 1271.53 333.307 1269.88V1269.66H347.565C347.638 1269.14 347.675 1268.66 347.675 1268.15C347.638 1266.35 347.232 1264.77 346.42 1263.41C345.607 1262.09 344.536 1261.03 343.132 1260.29C341.729 1259.56 340.14 1259.19 338.33 1259.19C336.52 1259.19 334.932 1259.59 333.529 1260.4C332.125 1261.21 331.054 1262.31 330.278 1263.78ZM343.612 1266.75H333.455C333.602 1265.43 334.12 1264.4 335.08 1263.6C336.04 1262.79 337.148 1262.39 338.478 1262.39C339.882 1262.39 341.027 1262.79 341.95 1263.56C342.874 1264.33 343.428 1265.4 343.612 1266.75Z" fill="white"/>
<path d="M361.354 1259.41H360.467C358.99 1259.41 357.845 1259.67 356.995 1260.18C356.109 1260.7 355.407 1261.36 354.89 1262.24L354.446 1259.41H350.9V1278.21H354.89V1268.77C354.89 1267.16 355.259 1265.8 355.998 1264.74C356.736 1263.67 357.918 1263.12 359.581 1263.12H361.354V1259.41Z" fill="white"/>
<path d="M362.162 1274.13C361.682 1274.61 361.461 1275.2 361.461 1275.93C361.461 1276.67 361.682 1277.29 362.162 1277.73C362.643 1278.21 363.271 1278.43 364.009 1278.43C364.748 1278.43 365.339 1278.21 365.856 1277.73C366.336 1277.29 366.595 1276.67 366.595 1275.93C366.595 1275.2 366.336 1274.61 365.856 1274.13C365.339 1273.69 364.748 1273.44 364.009 1273.44C363.271 1273.44 362.643 1273.69 362.162 1274.13Z" fill="white"/>
<path d="M347.401 1247H364.023V1249.45H347.401V1247Z" fill="white"/>
<path d="M284.609 1285.55H301.23V1288H284.609V1285.55Z" fill="white"/>
</svg>
