<svg width="27" height="36" viewBox="0 0 27 36" fill="none" xmlns="http://www.w3.org/2000/svg">
<path d="M18 4.5C18 2.01797 15.982 0 13.5 0C11.0179 0 8.99997 2.01797 8.99997 4.5C8.99997 6.98203 11.0179 9 13.5 9C15.982 9 18 6.98203 18 4.5ZM10.7508 11.9039C9.08435 11.3133 7.62185 10.1953 6.61638 8.68359L5.24529 6.62344C4.55622 5.58984 3.16404 5.31563 2.12341 6.00469C1.08279 6.69375 0.808566 8.09297 1.49763 9.12656L2.87575 11.1797C4.14841 13.0852 5.88513 14.5828 7.87497 15.5672V33.75C7.87497 34.9945 8.88044 36 10.125 36C11.3695 36 12.375 34.9945 12.375 33.75V27H14.625V33.75C14.625 34.9945 15.6304 36 16.875 36C18.1195 36 19.125 34.9945 19.125 33.75V15.5813C21.1711 14.5828 22.95 13.0359 24.2367 11.0672L25.5164 9.10547C26.1914 8.06484 25.8961 6.67266 24.8554 5.99062C23.8148 5.30859 22.4226 5.60391 21.7406 6.65156L20.4609 8.60625C18.9281 10.9547 16.3195 12.375 13.514 12.375C12.6281 12.375 11.7633 12.2344 10.9406 11.9672C10.8773 11.9461 10.814 11.918 10.7508 11.9039Z" fill="white"/>
</svg>
