<svg width="24" height="24" viewBox="0 0 24 24" fill="none" xmlns="http://www.w3.org/2000/svg">
<g clip-path="url(#clip0_917_353)">
<path d="M22.8332 10.1172L16.9372 7.24022C16.8672 7.20522 16.8312 7.13422 16.7952 7.06322L13.8832 1.16722C13.3852 0.137222 12.1072 -0.289778 11.0762 0.207222C10.6587 0.411655 10.3212 0.749468 10.1172 1.16722L7.20522 7.06322C7.16643 7.12859 7.11863 7.18818 7.06322 7.24022L1.16722 10.1532C0.137222 10.6502 -0.289778 11.9292 0.207222 12.9592C0.412102 13.3767 0.749756 13.7143 1.16722 13.9192L7.06322 16.7952C7.13322 16.8312 7.16922 16.9022 7.20522 16.9372L10.1532 22.8332C10.6502 23.8632 11.9292 24.2902 12.9592 23.7932C13.3768 23.5888 13.7142 23.251 13.9182 22.8332L16.7952 16.9372C16.8312 16.8672 16.9022 16.7952 16.9372 16.7952L22.8332 13.8832C23.8632 13.3852 24.2902 12.1072 23.7932 11.0772C23.6152 10.6502 23.2602 10.3312 22.8332 10.1172ZM18.4652 10.5442L15.7302 12.9242C15.1972 13.4212 14.8062 14.0602 14.6642 14.7712L13.9542 18.3222C13.9182 18.4652 13.7762 18.5722 13.6342 18.5362C13.5632 18.5362 13.5272 18.5002 13.4922 18.4292L11.1122 15.6942C10.6152 15.1612 9.97522 14.7712 9.26522 14.6282L5.71322 13.9182C5.57122 13.8832 5.46422 13.7402 5.50022 13.5982C5.50022 13.5282 5.53522 13.4922 5.60622 13.4562L8.34122 11.0762C8.87422 10.5792 9.26522 9.94022 9.40722 9.22922L10.1172 5.67822C10.1532 5.53522 10.2952 5.42822 10.4372 5.46422C10.4906 5.47312 10.5401 5.49786 10.5792 5.53522L12.9592 8.27022C13.4562 8.80322 14.0962 9.19422 14.8062 9.33622L18.3582 10.0462C18.5002 10.0822 18.6072 10.2242 18.5712 10.3662C18.5531 10.4342 18.5164 10.4959 18.4652 10.5442Z" fill="#FF4646"/>
</g>
<defs>
<clipPath id="clip0_917_353">
<rect width="24" height="24" fill="white"/>
</clipPath>
</defs>
</svg>
