<svg width="24" height="24" viewBox="0 0 24 24" fill="none" xmlns="http://www.w3.org/2000/svg">
<g clip-path="url(#clip0_932_3)">
<path d="M4.89459 19.1055L0.788719 14.9996C0.301687 14.5004 0 13.7945 0 13.1046C0 12.7852 0.18 12.2859 0.315844 12.0001L4.10588 4.10596L4.89459 19.1055Z" fill="#01579B"/>
<path d="M18.9484 4.89459L14.8425 0.788719C14.4844 0.428719 13.7379 0 13.1063 0C12.5629 0 12.03 0.109406 11.6859 0.315844L4.10767 4.10588L18.9484 4.89459ZM9.7892 24H19.7371V19.7371L12.3159 17.3675L5.52629 19.7371L9.7892 24Z" fill="#40C4FF"/>
<path d="M4.1059 16.8945C4.1059 18.1614 4.26471 18.472 4.89461 19.1053L5.5263 19.737H19.7371L12.7905 11.8429L4.1059 4.10571V16.8946V16.8945Z" fill="#29B6F6"/>
<path d="M16.7376 4.104H4.1059L19.7371 19.7352H24V9.94613L18.9466 4.89272C18.2373 4.18163 17.6074 4.104 16.7376 4.104Z" fill="#01579B"/>
<path opacity="0.2" d="M5.05339 19.2624C4.4217 18.629 4.26467 18.0043 4.26467 16.8945V4.26274L4.10764 4.10571V16.8944C4.10576 18.0042 4.10576 18.3113 5.05339 19.2623V19.2624Z" fill="white"/>
<path opacity="0.2" d="M23.843 9.78931V19.5784H19.5801L19.7371 19.7372H24V9.94634L23.843 9.78931Z" fill="#263238"/>
<path opacity="0.2" d="M18.9484 4.89468C18.165 4.11121 17.5245 4.10596 16.5805 4.10596H4.10767L4.2647 4.26299H16.5805C17.0516 4.26299 18.2409 4.18358 18.9484 4.89468Z" fill="white"/>
<path opacity="0.2" d="M23.843 9.78919L18.9484 4.8945L14.8425 0.788812C14.4844 0.428719 13.738 0 13.1063 0C12.5629 0 12.03 0.109406 11.686 0.315844L4.10768 4.10588L0.317647 12C0.181709 12.2876 0.00170898 12.7869 0.00170898 13.1046C0.00170898 13.7945 0.305272 14.4984 0.790522 14.9995L4.57343 18.7561C4.66343 18.8672 4.76936 18.9802 4.89462 19.1054L5.05165 19.2624L5.52452 19.7353L9.6304 23.8412L9.78743 23.9982H19.7335V19.7354H23.9964V9.94613L23.8429 9.78909L23.843 9.78919Z" fill="url(#paint0_radial_932_3)"/>
</g>
<defs>
<radialGradient id="paint0_radial_932_3" cx="0" cy="0" r="1" gradientUnits="userSpaceOnUse" gradientTransform="translate(1199.73 1199.78) scale(1199.83 1199.83)">
<stop stop-color="white" stop-opacity="0.1"/>
<stop offset="1" stop-color="white" stop-opacity="0"/>
</radialGradient>
<clipPath id="clip0_932_3">
<rect width="24" height="24" fill="white"/>
</clipPath>
</defs>
</svg>
