<svg width="24" height="24" viewBox="0 0 24 24" fill="none" xmlns="http://www.w3.org/2000/svg">
<path d="M4.34998 18.4501L4.47748 18.2723L10.4925 6.86183L10.5052 6.74108L7.85398 1.76108C7.80544 1.67001 7.7295 1.59651 7.63689 1.55098C7.54428 1.50544 7.43971 1.49018 7.33795 1.50734C7.23619 1.52451 7.14241 1.57324 7.06987 1.64663C6.99733 1.72003 6.9497 1.81438 6.93373 1.91633L4.34998 18.4501Z" fill="#FFC24A"/>
<path d="M4.42499 18.3149L4.52099 18.1274L10.4737 6.83539L7.82924 1.83589C7.78563 1.74895 7.71502 1.67847 7.62799 1.63503C7.54096 1.59158 7.4422 1.57751 7.3465 1.59491C7.2508 1.61231 7.16331 1.66025 7.09715 1.73154C7.03098 1.80284 6.9897 1.89366 6.97949 1.99039L4.42499 18.3149Z" fill="#FFA712"/>
<path d="M12.438 10.5074L14.412 8.48241L12.4373 4.71666C12.3938 4.63562 12.3292 4.56788 12.2503 4.52065C12.1714 4.47343 12.0811 4.44849 11.9892 4.44849C11.8972 4.44849 11.8069 4.47343 11.728 4.52065C11.6491 4.56788 11.5845 4.63562 11.541 4.71666L10.4858 6.72816V6.89991L12.438 10.5074Z" fill="#F4BD62"/>
<path d="M12.4027 10.4249L14.322 8.45992L12.4027 4.79992C12.3713 4.7207 12.3177 4.65225 12.2482 4.60284C12.1788 4.55342 12.0966 4.52514 12.0114 4.52142C11.9263 4.51769 11.8419 4.53867 11.7684 4.58184C11.6949 4.625 11.6355 4.68849 11.5972 4.76467L10.5367 6.81142L10.5052 6.91567L12.4027 10.4249Z" fill="#FFA50E"/>
<path d="M4.3515 18.4508L4.40925 18.3923L4.6185 18.3075L12.3135 10.641L12.411 10.3755L10.4918 6.71704L4.3515 18.4508Z" fill="#F6820C"/>
<path d="M12.684 22.317L19.65 18.4327L17.6595 6.18449C17.6452 6.09815 17.6074 6.01741 17.5503 5.95113C17.4931 5.88485 17.4188 5.8356 17.3355 5.80879C17.2522 5.78198 17.1631 5.77864 17.078 5.79914C16.993 5.81964 16.9152 5.86318 16.8532 5.92499L4.34998 18.45L11.2747 22.3162C11.49 22.4364 11.7324 22.4994 11.979 22.4994C12.2255 22.4994 12.4679 22.4364 12.6832 22.3162" fill="#FDE068"/>
<path d="M19.5862 18.4006L17.6122 6.24462C17.6088 6.16203 17.5808 6.08234 17.532 6.01562C17.4833 5.9489 17.4158 5.89816 17.3381 5.86981C17.2605 5.84147 17.1762 5.83679 17.0958 5.85639C17.0155 5.87598 16.9429 5.91895 16.887 5.97987L4.42499 18.4269L11.2732 22.2519C11.4868 22.371 11.7273 22.4336 11.9719 22.4336C12.2164 22.4336 12.4569 22.371 12.6705 22.2519L19.5862 18.4006Z" fill="#FCCA3F"/>
<path d="M12.684 22.1999C12.4687 22.32 12.2263 22.3831 11.9797 22.3831C11.7332 22.3831 11.4908 22.32 11.2755 22.1999L4.40698 18.3914L4.34998 18.4499L11.2747 22.3161C11.49 22.4363 11.7324 22.4993 11.979 22.4993C12.2255 22.4993 12.4679 22.4363 12.6832 22.3161L19.65 18.4326L19.6327 18.3276L12.684 22.1999Z" fill="#EEAB37"/>
</svg>
