<svg width="24" height="24" viewBox="0 0 24 24" fill="none" xmlns="http://www.w3.org/2000/svg">
<g clip-path="url(#clip0_940_44)">
<path d="M5.02538 0C7.80075 0 10.0508 2.24925 10.0508 5.02406C10.0508 7.75125 7.87678 9.96937 5.16703 10.0447C5.16703 10.2754 5.17725 10.7113 5.30775 10.9747C5.48897 11.3396 6.57572 12.0194 7.64138 12.0194H8.02425C8.26491 10.3065 9.73584 8.98828 11.5155 8.98828C13.2879 8.98828 14.7546 10.2957 15.004 11.9986H16.985C17.2344 10.2957 18.701 8.98828 20.4734 8.98828C22.4211 8.98828 24 10.5667 24 12.5139C24 14.4611 22.4211 16.0395 20.4734 16.0395C18.701 16.0395 17.2343 14.7319 16.985 13.0292H15.0041C14.7548 14.7319 13.288 16.0395 11.5155 16.0395C9.74644 16.0395 8.28169 14.737 8.02809 13.0388L7.60481 13.0515C6.90778 13.0463 6.17138 12.8601 5.58 12.4583C5.41875 12.3487 5.25984 12.2335 5.09419 12.1245V12.3533C5.09325 12.4274 5.07984 13.5399 5.07881 14.7752V15.0367C5.07928 15.8468 5.08566 16.6816 5.10478 17.2905C5.14659 18.6261 6.23297 19.7041 7.43184 19.9564C7.58775 19.9892 7.85559 19.9933 8.02444 19.9787C8.26547 18.2664 9.73631 16.9487 11.5155 16.9487C13.4631 16.9487 15.042 18.5273 15.042 20.4743C15.042 22.4215 13.4631 24 11.5155 24C9.75591 24 8.29772 22.7115 8.03241 21.0268H7.72734C5.43647 20.9017 4.01222 18.8006 4.03706 17.0965C4.06838 14.9518 4.04475 12.8062 4.04447 10.661V9.95175C1.73869 9.49556 0 7.46306 0 5.02416C0 2.24925 2.24991 0 5.02538 0ZM11.5155 17.9794C10.1373 17.9794 9.01987 19.0964 9.01987 20.4743C9.01987 21.8524 10.1373 22.9694 11.5155 22.9694C12.8938 22.9694 14.0111 21.8524 14.0111 20.4743C14.0111 19.0964 12.8938 17.9794 11.5155 17.9794ZM11.5155 10.0189C10.1373 10.0189 9.01987 11.1359 9.01987 12.5139C9.01987 13.8918 10.1373 15.0089 11.5155 15.0089C12.8938 15.0089 14.0111 13.8918 14.0111 12.5139C14.0111 11.1359 12.8938 10.0189 11.5155 10.0189ZM20.4734 10.0189C19.0951 10.0189 17.9778 11.1359 17.9778 12.5139C17.9778 13.8918 19.0951 15.0089 20.4734 15.0089C21.8518 15.0089 22.9691 13.8918 22.9691 12.5139C22.9691 11.1359 21.8518 10.0189 20.4735 10.0189H20.4734ZM21.8948 11.4634C21.9889 11.5572 22.0431 11.6838 22.046 11.8167C22.049 11.9496 22.0005 12.0785 21.9107 12.1764L21.8957 12.1922L20.3666 13.7245C20.2732 13.8181 20.1474 13.8722 20.0152 13.8757C19.883 13.8792 19.7546 13.8317 19.6564 13.7431L19.6403 13.7278L18.8917 12.9909C18.8434 12.9435 18.805 12.887 18.7787 12.8246C18.7523 12.7623 18.7384 12.6954 18.7379 12.6277C18.7374 12.5601 18.7502 12.493 18.7756 12.4302C18.801 12.3675 18.8385 12.3104 18.886 12.2622C18.9793 12.1675 19.1056 12.1125 19.2384 12.1087C19.3713 12.1048 19.5005 12.1524 19.5991 12.2416L19.6148 12.2566L19.9985 12.6341L21.1658 11.4644C21.2624 11.3676 21.3934 11.3132 21.5301 11.313C21.6668 11.3128 21.798 11.3668 21.8948 11.4634ZM12.8957 11.4559C12.9898 11.5497 13.044 11.6763 13.0469 11.8092C13.0499 11.9421 13.0014 12.071 12.9116 12.1689L12.8966 12.1847L11.3676 13.7169C11.2741 13.8105 11.1483 13.8647 11.0161 13.8681C10.884 13.8716 10.7555 13.8241 10.6573 13.7355L10.6412 13.7202L9.89259 12.9833C9.7977 12.8885 9.74353 12.7604 9.74159 12.6262C9.73965 12.4921 9.79009 12.3625 9.8822 12.2649C9.9743 12.1674 10.1008 12.1096 10.2349 12.1038C10.3689 12.0981 10.4999 12.1448 10.6 12.2341L10.6158 12.2491L10.9995 12.6266L12.1668 11.4568C12.2633 11.3601 12.3944 11.3056 12.531 11.3054C12.6677 11.3053 12.7989 11.3594 12.8957 11.4559ZM5.02538 1.03059C2.81925 1.03059 1.03088 2.81841 1.03088 5.02416C1.03088 7.22962 2.81925 9.01763 5.02538 9.01763C7.2315 9.01763 9.01987 7.22962 9.01987 5.02416C9.01987 2.8185 7.2315 1.03059 5.02538 1.03059ZM4.60978 2.63719C5.44973 3.14187 6.27895 3.6642 7.09687 4.20384C7.782 4.65572 7.78031 5.47538 7.0875 5.92828C6.25573 6.47254 5.40988 6.99497 4.55081 7.49503C3.85191 7.90191 3.06956 7.43409 3.05063 6.61903C3.03844 6.09384 3.04837 5.56809 3.04762 5.04244C3.04706 4.53112 3.03703 4.01953 3.04941 3.50841C3.07022 2.64141 3.86841 2.18972 4.60969 2.63719H4.60978ZM4.05572 3.46894V3.83156L4.05562 4.3635L4.05553 4.71131V5.22525C4.05553 5.62181 4.05572 6.01219 4.05647 6.40247C4.05675 6.58622 4.15237 6.57872 4.27612 6.50213C4.98909 6.06019 5.70244 5.61872 6.41616 5.17772C6.53409 5.10497 6.53747 5.02894 6.42178 4.956C5.65734 4.47422 4.89197 3.99412 4.05572 3.46894Z" fill="#4A7EBF"/>
<path d="M12.49 20.9888C12.5577 20.9888 12.6247 20.9755 12.6873 20.9496C12.7498 20.9237 12.8066 20.8857 12.8545 20.8379C12.9024 20.79 12.9404 20.7332 12.9663 20.6706C12.9922 20.6081 13.0055 20.5411 13.0055 20.4734C13.0055 20.4057 12.9922 20.3387 12.9663 20.2762C12.9404 20.2136 12.9024 20.1568 12.8546 20.1089C12.8067 20.0611 12.7499 20.0231 12.6874 19.9972C12.6248 19.9713 12.5578 19.9579 12.4901 19.9579C12.3534 19.9579 12.2223 20.0122 12.1257 20.1089C12.029 20.2055 11.9747 20.3366 11.9747 20.4733C11.9747 20.61 12.029 20.7411 12.1257 20.8377C12.2223 20.9344 12.3534 20.9887 12.4901 20.9887M10.5168 20.9888C10.6535 20.9888 10.7846 20.9345 10.8812 20.8378C10.9779 20.7412 11.0322 20.6101 11.0322 20.4734C11.0322 20.3367 10.9779 20.2055 10.8812 20.1089C10.7846 20.0122 10.6535 19.9579 10.5168 19.9579C10.3801 19.9579 10.249 20.0122 10.1523 20.1089C10.0557 20.2055 10.0014 20.3366 10.0014 20.4733C10.0014 20.61 10.0557 20.7411 10.1523 20.8377C10.249 20.9344 10.3801 20.9887 10.5168 20.9887M20.4735 22.9694C19.0952 22.9694 17.9779 21.8524 17.9779 20.4744C17.9779 19.0965 19.0952 17.9793 20.4735 17.9793C21.8517 17.9793 22.9691 19.0965 22.9691 20.4744C22.9691 21.8524 21.8517 22.9694 20.4735 22.9694ZM20.4735 16.9488C18.7011 16.9488 17.2344 18.2564 16.985 19.9591H16.4081C16.1564 19.9591 15.9521 20.1899 15.9521 20.4744C15.9521 20.759 16.1564 20.9897 16.4081 20.9897H16.985C17.2343 22.6925 18.7011 24 20.4734 24C22.4212 24 24 22.4215 24 20.4744C24 18.5272 22.4211 16.9487 20.4735 16.9487" fill="#85B3DF"/>
</g>
<defs>
<clipPath id="clip0_940_44">
<rect width="24" height="24" fill="white"/>
</clipPath>
</defs>
</svg>
