<svg width="24" height="24" viewBox="0 0 24 24" fill="none" xmlns="http://www.w3.org/2000/svg">
<path d="M2.64 10.3299L2.62 10.2699L2.84 9.9999L2.96 9.9199H6.8L6.83 9.9999L6.65 10.2599L6.54 10.3199L2.64 10.3299ZM1.03 11.3099L1 11.2599L1.22 10.9699L1.34 10.9099H6.24L6.29 10.9999L6.21 11.2399L6.11 11.3099H1.03ZM3.63 12.2999L3.59 12.2399L3.75 11.9599L3.85 11.8999H6L6.07 11.9699L6.05 12.2199L5.97 12.2999H3.63ZM14.78 10.1399L13 10.6099C12.81 10.6499 12.8 10.6599 12.66 10.4999C12.5 10.3199 12.39 10.2099 12.16 10.0999C11.5 9.7599 10.83 9.8599 10.22 10.2499C9.5 10.7299 9.11 11.4199 9.12 12.2999C9.13 13.1599 9.72 13.8699 10.57 13.9999C11.3 14.0899 11.91 13.8299 12.4 13.2799L12.69 12.8899H10.62C10.4 12.8899 10.35 12.7499 10.42 12.5699L10.97 11.3899C11 11.3299 11.08 11.2199 11.24 11.2199H14.68C14.83 10.7199 15.09 10.2599 15.43 9.8099C16.21 8.7799 17.16 8.2399 18.43 7.9999C19.5 7.8199 20.56 7.9299 21.5 8.5699C22.34 9.1499 22.87 9.9299 23 10.9599C23.19 12.4099 22.76 13.5899 21.76 14.6099C21.05 15.3299 20.18 15.7799 19.19 15.9999L18.33 16.0799C17.35 16.0599 16.46 15.7799 15.71 15.1299C15.19 14.6799 14.83 14.1399 14.65 13.4999C14.5 13.7399 14.38 13.9699 14.21 14.1999C13.44 15.2199 12.43 15.8499 11.15 15.9999C10.1 16.1599 9.12 15.9499 8.26 15.3099C7.47 14.7099 7 13.9099 6.9 12.9199C6.76 11.7499 7.1 10.6999 7.81 9.7799C8.57 8.7799 9.58 8.1499 10.82 7.9199C11.82 7.7399 12.79 7.8599 13.66 8.4399C14.23 8.8199 14.63 9.3399 14.9 9.9599C14.94 10.0499 14.9 10.1099 14.78 10.1399ZM20.89 11.7399L20.86 11.3799C20.67 10.3199 19.69 9.7199 18.67 9.9499C17.66 10.1699 17 10.7999 16.79 11.8099C16.6 12.6499 17 13.4999 17.77 13.8399C18.36 14.0999 18.96 14.0599 19.53 13.7799C20.37 13.3499 20.84 12.6599 20.89 11.7399Z" fill="white"/>
</svg>
