<svg width="22" height="24" viewBox="0 0 22 24" fill="none" xmlns="http://www.w3.org/2000/svg">
<g clip-path="url(#clip0_940_53)">
<path d="M21.6341 20.952C21.6362 21.3738 21.5488 21.7913 21.3774 22.1767C21.206 22.5622 20.9547 22.9068 20.6401 23.1877C20.3254 23.4687 19.9547 23.6796 19.5524 23.8064C19.1501 23.9332 18.7254 23.9731 18.3065 23.9233C16.7817 23.6977 15.6643 22.3709 15.7015 20.8299V3.11357C15.6646 1.57098 16.7848 0.243374 18.3116 0.0201904C18.7301 -0.028803 19.1542 0.0116129 19.5559 0.138765C19.9576 0.265917 20.3277 0.476907 20.6418 0.75778C20.9559 1.03865 21.2067 1.38301 21.3778 1.76807C21.5488 2.15313 21.6362 2.57012 21.6341 2.99146V20.952Z" fill="#F9AB00"/>
<path d="M2.96628 18.0164C4.60454 18.0164 5.93256 19.3445 5.93256 20.9826C5.93256 22.6209 4.60454 23.9489 2.96628 23.9489C1.32803 23.9489 0 22.6209 0 20.9827C0 19.3445 1.32803 18.0164 2.96628 18.0164ZM10.7712 9.0259C9.12524 9.11616 7.84808 10.4968 7.88637 12.1449V20.1126C7.88637 22.275 8.83783 23.5877 10.2319 23.8675C10.6641 23.9551 11.1103 23.9455 11.5383 23.8392C11.9663 23.7329 12.3652 23.5327 12.7062 23.2531C13.0472 22.9734 13.3217 22.6214 13.5098 22.2226C13.6978 21.8237 13.7947 21.388 13.7935 20.947V12.0076C13.7942 11.6124 13.7162 11.221 13.5641 10.8563C13.412 10.4915 13.1887 10.1607 12.9074 9.8832C12.626 9.60566 12.2923 9.38692 11.9255 9.23975C11.5587 9.09257 11.1663 9.01982 10.7712 9.0259Z" fill="#E37400"/>
</g>
<defs>
<clipPath id="clip0_940_53">
<rect width="21.6338" height="24" fill="white"/>
</clipPath>
</defs>
</svg>
