<svg width="36" height="36" viewBox="0 0 36 36" fill="none" xmlns="http://www.w3.org/2000/svg">
<path d="M33 10.5V14.25C33 15.5304 32.7478 16.7982 32.2578 17.9812C31.7678 19.1641 31.0497 20.2389 30.1443 21.1443C29.2389 22.0497 28.1641 22.7678 26.9812 23.2578C25.7982 23.7478 24.5304 24 23.25 24H19.5V31.5H16.5V21L16.5285 19.5C16.7174 17.0512 17.8236 14.7639 19.6259 13.0953C21.4282 11.4268 23.7939 10.4999 26.25 10.5H33ZM9 4.5C11.204 4.50017 13.3522 5.1935 15.1405 6.48187C16.9287 7.77024 18.2665 9.58839 18.9645 11.679C17.8167 12.6517 16.8763 13.8454 16.1993 15.189C15.5224 16.5326 15.1227 17.9987 15.024 19.5H13.5C10.7152 19.5 8.04451 18.3938 6.07538 16.4246C4.10625 14.4555 3 11.7848 3 9V4.5H9Z" fill="white"/>
</svg>
