<svg width="24" height="24" viewBox="0 0 24 24" fill="none" xmlns="http://www.w3.org/2000/svg">
<g clip-path="url(#clip0_940_61)">
<path d="M22.9367 0H11.41C11.41 1.38 11.9582 2.70349 12.934 3.6793C13.9099 4.65511 15.2333 5.20331 16.6133 5.20331H18.7367V7.25344C18.7386 10.1245 21.0655 12.4516 23.9366 12.4535V0.999938C23.9366 0.447844 23.4891 0 22.9367 0Z" fill="#2684FF"/>
<path d="M17.2333 5.74341H5.70675C5.70853 8.6145 8.0355 10.9416 10.9067 10.9434H13.03V13.0001C13.0337 15.8712 15.3622 18.1967 18.2333 18.1967V6.74353C18.2333 6.19125 17.7856 5.74341 17.2333 5.74341Z" fill="url(#paint0_linear_940_61)"/>
<path d="M11.5267 11.4834H0C0 14.3571 2.32969 16.6867 5.20331 16.6867H7.33331V18.7367C7.33519 21.6052 9.65812 23.9312 12.5267 23.9367V12.4834C12.5267 11.9311 12.0789 11.4834 11.5267 11.4834Z" fill="url(#paint1_linear_940_61)"/>
</g>
<defs>
<linearGradient id="paint0_linear_940_61" x1="1233.7" y1="7.7484" x2="746.356" y2="516.273" gradientUnits="userSpaceOnUse">
<stop offset="0.18" stop-color="#0052CC"/>
<stop offset="1" stop-color="#2684FF"/>
</linearGradient>
<linearGradient id="paint1_linear_940_61" x1="1261" y1="17.1496" x2="697.263" y2="571.794" gradientUnits="userSpaceOnUse">
<stop offset="0.18" stop-color="#0052CC"/>
<stop offset="1" stop-color="#2684FF"/>
</linearGradient>
<clipPath id="clip0_940_61">
<rect width="24" height="24" fill="white"/>
</clipPath>
</defs>
</svg>
