<svg width="87" height="87" viewBox="0 0 87 87" fill="none" xmlns="http://www.w3.org/2000/svg">
<rect width="87" height="87" fill="white"/>
<path d="M13 63.3684V26.6316H37.3324V33.7368H20.9882V41.2632H34.9149V48.3158H20.9882V63.3684H13Z" fill="black"/>
<path d="M56.866 64C54.4485 64 52.2413 63.5965 50.2442 62.7895C48.2472 61.9825 46.5479 60.7895 45.1465 59.2105C43.7451 57.5965 42.6589 55.614 41.8882 53.2632C41.1174 50.8772 40.732 48.1228 40.732 45C40.732 41.8772 41.1174 39.1404 41.8882 36.7895C42.6589 34.4035 43.7451 32.4211 45.1465 30.8421C46.5479 29.2281 48.2472 28.0175 50.2442 27.2105C52.2413 26.4035 54.4485 26 56.866 26C59.2835 26 61.4907 26.4035 63.4878 27.2105C65.4848 28.0175 67.184 29.2281 68.5855 30.8421C69.9869 32.4211 71.073 34.4035 71.8438 36.7895C72.6146 39.1404 73 41.8772 73 45C73 48.1228 72.6146 50.8772 71.8438 53.2632C71.073 55.614 69.9869 57.5965 68.5855 59.2105C67.184 60.7895 65.4848 61.9825 63.4878 62.7895C61.4907 63.5965 59.2835 64 56.866 64ZM56.866 56.8947C59.2835 56.8947 61.1579 56.1053 62.4892 54.5263C63.8556 52.9474 64.5388 50.6842 64.5388 47.7368V42.2632C64.5388 39.3158 63.8556 37.0526 62.4892 35.4737C61.1579 33.8947 59.2835 33.1053 56.866 33.1053C54.4485 33.1053 52.5566 33.8947 51.1902 35.4737C49.8588 37.0526 49.1931 39.3158 49.1931 42.2632V47.7368C49.1931 50.6842 49.8588 52.9474 51.1902 54.5263C52.5566 56.1053 54.4485 56.8947 56.866 56.8947Z" fill="black"/>
</svg>
