<svg width="113" height="53" viewBox="0 0 113 53" fill="none" xmlns="http://www.w3.org/2000/svg">
<path d="M0 36.209H4.39549L6.79638 29.857H17.3973L19.8351 36.209H24.3783L14.7378 10.5075H9.67746L0 36.209ZM7.97836 26.2588L12.0784 15.0603L16.2153 26.2588H7.97836Z" fill="white"/>
<path d="M27.4095 17.4102H24.1221V20.8982H27.4095V36.209H31.4356V20.8982H36.4959V17.4102H31.4356V15.8314C31.4356 15.2072 31.5464 14.7299 31.8419 14.4361C32.1374 14.1424 32.5806 13.9956 33.2455 13.9956H36.5329V10.5075H32.6914C30.8815 10.5075 29.5518 10.9481 28.7023 11.7926C27.8158 12.637 27.4095 13.8854 27.4095 15.5376V17.4102Z" fill="white"/>
<path d="M38.4908 12.1597V31.1054C38.4908 32.8678 38.8971 34.1529 39.7097 34.9606C40.5223 35.8051 41.8151 36.209 43.625 36.209H47.4665V32.7209H44.4377C43.6989 32.7209 43.2187 32.5741 42.9232 32.2803C42.6277 31.9866 42.48 31.4359 42.48 30.7015V20.8982H47.0602V17.4102H42.48V12.1597H38.4908Z" fill="white"/>
<path d="M49.6833 21.7794C48.9076 23.2481 48.5382 24.937 48.5382 26.8463C48.5382 28.7556 48.9076 30.4445 49.7202 31.8764C50.5328 33.3451 51.6409 34.4466 53.1184 35.2544C54.5959 36.0621 56.295 36.4293 58.2896 36.4293C60.5427 36.4293 62.4265 35.8418 63.9409 34.5935C65.4553 33.3818 66.3787 31.803 66.7481 29.8938H62.7589C62.4634 30.9585 61.9094 31.7663 61.0968 32.3538C60.2472 32.9412 59.213 33.1982 57.9941 33.1982C56.4427 33.1982 55.1869 32.7209 54.2634 31.7663C53.3031 30.8117 52.786 29.5266 52.7121 27.8744V27.6541H66.9697C67.0436 27.14 67.0805 26.6627 67.0805 26.1487C67.0436 24.3496 66.6373 22.7708 65.8247 21.4123C65.0121 20.0905 63.9409 19.0257 62.5373 18.2914C61.1337 17.557 59.5454 17.1899 57.7355 17.1899C55.9256 17.1899 54.3373 17.5938 52.9337 18.4015C51.5301 19.2093 50.4589 20.3108 49.6833 21.7794ZM63.0175 24.7535H52.8598C53.0076 23.4317 53.5247 22.4036 54.4851 21.5959C55.4454 20.7881 56.5535 20.3842 57.8832 20.3842C59.2868 20.3842 60.4319 20.7881 61.3553 21.5591C62.2787 22.3302 62.8328 23.395 63.0175 24.7535Z" fill="white"/>
<path d="M80.7587 17.4102H79.8722C78.3948 17.4102 77.2497 17.6672 76.4002 18.1812C75.5137 18.6953 74.8119 19.3561 74.2948 20.2373L73.8515 17.4102H70.3056V36.209H74.2948V26.7729C74.2948 25.1573 74.6641 23.7988 75.4029 22.7341C76.1416 21.6693 77.3236 21.1185 78.9857 21.1185H80.7587V17.4102Z" fill="white"/>
<path d="M81.5676 32.1335C81.0874 32.6108 80.8658 33.1982 80.8658 33.9326C80.8658 34.6669 81.0874 35.2911 81.5676 35.7317C82.0478 36.209 82.6757 36.4293 83.4144 36.4293C84.1532 36.4293 84.7441 36.209 85.2613 35.7317C85.7414 35.2911 86 34.6669 86 33.9326C86 33.1982 85.7414 32.6108 85.2613 32.1335C84.7441 31.6929 84.1532 31.4359 83.4144 31.4359C82.6757 31.4359 82.0478 31.6929 81.5676 32.1335Z" fill="white"/>
<path d="M66.8065 5.00003H83.4281V7.44779H66.8065V5.00003Z" fill="white"/>
<path d="M4.01381 43.5523H20.6354V46H4.01381V43.5523Z" fill="white"/>
<path d="M100.048 53C97.8122 53 96 51.1168 96 48.7937L96 4.20635C96 1.88325 97.8122 5.0605e-07 100.048 4.04504e-07L108.952 0C111.188 -1.01546e-07 113 1.88325 113 4.20635L113 48.7937C113 51.1168 111.188 53 108.952 53H100.048Z" fill="#24FF00"/>
<path d="M104.527 5.5524H101.943V12.6191H104.653C105.479 12.6191 106.12 12.4474 106.577 12.0941C107.023 11.7408 107.257 11.2562 107.257 10.6303C107.257 10.1457 107.111 9.77221 106.839 9.49964C106.567 9.23716 106.178 9.06554 105.673 8.99487C106.101 8.91411 106.431 8.74249 106.664 8.46992C106.897 8.20744 107.014 7.85411 107.014 7.40992C107.014 6.8244 106.79 6.36002 106.363 6.03697C105.926 5.71392 105.314 5.5524 104.527 5.5524ZM103.4 8.45983V6.74363H104.566C104.877 6.74363 105.119 6.8244 105.294 6.97583C105.469 7.13735 105.557 7.33925 105.557 7.60173C105.557 7.86421 105.469 8.07621 105.294 8.22763C105.119 8.38916 104.877 8.45983 104.566 8.45983H103.4ZM103.4 11.4177V9.63087H104.663C105.003 9.63087 105.275 9.71163 105.469 9.87316C105.663 10.0347 105.761 10.2568 105.761 10.5394C105.761 10.8221 105.663 11.0341 105.469 11.1855C105.275 11.3471 105.013 11.4177 104.663 11.4177H103.4Z" fill="black"/>
<path d="M102.308 17.3302V24.3968H106.981V23.0946H103.765V21.4591H106.291V20.2174H103.765V18.6325H106.874V17.3302H102.308Z" fill="black"/>
<path d="M101.811 29.108V30.4102H103.773V36.1746H105.23V30.4102H107.193V29.108H101.811Z" fill="black"/>
<path d="M101.147 47.9524H102.653L103.178 46.4078H105.762L106.286 47.9524H107.85L105.383 40.8857H103.634L101.147 47.9524ZM103.566 45.1863L104.46 42.501L105.363 45.1863H103.566Z" fill="black"/>
</svg>
