<svg width="86" height="54" viewBox="0 0 86 54" fill="none" xmlns="http://www.w3.org/2000/svg">
<path d="M0 31.209H4.39549L6.79638 24.857H17.3973L19.8351 31.209H24.3783L14.7378 5.50746H9.67746L0 31.209ZM7.97836 21.2588L12.0784 10.0603L16.2153 21.2588H7.97836Z" fill="white"/>
<path d="M27.4095 12.4101H24.1221V15.8982H27.4095V31.209H31.4356V15.8982H36.4959V12.4101H31.4356V10.8313C31.4356 10.2072 31.5464 9.72985 31.8419 9.43612C32.1374 9.14239 32.5806 8.99552 33.2455 8.99552H36.5329V5.50746H32.6914C30.8815 5.50746 29.5518 5.94806 28.7023 6.79254C27.8158 7.63701 27.4095 8.88537 27.4095 10.5376V12.4101Z" fill="white"/>
<path d="M38.4908 7.1597V26.1054C38.4908 27.8678 38.8971 29.1528 39.7097 29.9606C40.5223 30.8051 41.8151 31.209 43.625 31.209H47.4665V27.7209H44.4376C43.6989 27.7209 43.2187 27.574 42.9232 27.2803C42.6277 26.9866 42.48 26.4358 42.48 25.7015V15.8982H47.0602V12.4101H42.48V7.1597H38.4908Z" fill="white"/>
<path d="M49.6833 16.7794C48.9076 18.2481 48.5382 19.937 48.5382 21.8463C48.5382 23.7555 48.9076 25.4445 49.7202 26.8764C50.5328 28.3451 51.6409 29.4466 53.1184 30.2543C54.5959 31.0621 56.295 31.4293 58.2896 31.4293C60.5427 31.4293 62.4265 30.8418 63.9409 29.5934C65.4553 28.3818 66.3787 26.803 66.7481 24.8937H62.7589C62.4634 25.9585 61.9094 26.7663 61.0968 27.3537C60.2472 27.9412 59.213 28.1982 57.9941 28.1982C56.4427 28.1982 55.1869 27.7209 54.2634 26.7663C53.3031 25.8116 52.786 24.5266 52.7121 22.8743V22.654H66.9697C67.0436 22.14 67.0805 21.6627 67.0805 21.1487C67.0436 19.3496 66.6373 17.7707 65.8247 16.4122C65.0121 15.0904 63.9409 14.0257 62.5373 13.2913C61.1337 12.557 59.5454 12.1899 57.7355 12.1899C55.9256 12.1899 54.3373 12.5937 52.9337 13.4015C51.5301 14.2093 50.4589 15.3107 49.6833 16.7794ZM63.0175 19.7534H52.8598C53.0076 18.4316 53.5247 17.4036 54.4851 16.5958C55.4454 15.7881 56.5535 15.3842 57.8832 15.3842C59.2868 15.3842 60.4319 15.7881 61.3553 16.5591C62.2787 17.3301 62.8328 18.3949 63.0175 19.7534Z" fill="white"/>
<path d="M80.7587 12.4101H79.8722C78.3948 12.4101 77.2497 12.6672 76.4002 13.1812C75.5137 13.6952 74.8119 14.3561 74.2948 15.2373L73.8515 12.4101H70.3056V31.209H74.2948V21.7728C74.2948 20.1573 74.6641 18.7988 75.4029 17.734C76.1416 16.6693 77.3236 16.1185 78.9857 16.1185H80.7587V12.4101Z" fill="white"/>
<path d="M81.5676 27.1334C81.0874 27.6107 80.8658 28.1982 80.8658 28.9325C80.8658 29.6669 81.0874 30.291 81.5676 30.7316C82.0478 31.209 82.6757 31.4293 83.4144 31.4293C84.1532 31.4293 84.7441 31.209 85.2613 30.7316C85.7414 30.291 86 29.6669 86 28.9325C86 28.1982 85.7414 27.6107 85.2613 27.1334C84.7441 26.6928 84.1532 26.4358 83.4144 26.4358C82.6757 26.4358 82.0478 26.6928 81.5676 27.1334Z" fill="white"/>
<path d="M66.8065 0H83.4281V2.44776H66.8065V0Z" fill="white"/>
<path d="M4.01381 38.5522H20.6354V41H4.01381V38.5522Z" fill="white"/>
<path d="M39 44.0952C39 42.3858 40.3844 41 42.0921 41H82.9079C84.6156 41 86 42.3858 86 44.0952V50.9048C86 52.6142 84.6156 54 82.9079 54H42.0921C40.3844 54 39 52.6142 39 50.9048V44.0952Z" fill="#24FF00"/>
<path d="M52.1958 45.7048H50.2218V50.9048H52.2923C52.9231 50.9048 53.4129 50.7785 53.7617 50.5185C54.103 50.2585 54.2811 49.9019 54.2811 49.4413C54.2811 49.0848 54.1698 48.8099 53.962 48.6093C53.7543 48.4162 53.4574 48.2899 53.0715 48.2379C53.398 48.1785 53.6504 48.0522 53.8285 47.8516C54.0066 47.6585 54.0956 47.3985 54.0956 47.0716C54.0956 46.6408 53.9249 46.299 53.5984 46.0613C53.2645 45.8236 52.7969 45.7048 52.1958 45.7048ZM51.335 47.8442V46.5813H52.2255C52.463 46.5813 52.6485 46.6408 52.7821 46.7522C52.9157 46.871 52.9825 47.0196 52.9825 47.2128C52.9825 47.4059 52.9157 47.5619 52.7821 47.6733C52.6485 47.7922 52.463 47.8442 52.2255 47.8442H51.335ZM51.335 50.0208V48.7059H52.2997C52.5595 48.7059 52.7673 48.7653 52.9157 48.8842C53.0641 49.003 53.1383 49.1665 53.1383 49.3745C53.1383 49.5825 53.0641 49.7385 52.9157 49.8499C52.7673 49.9688 52.5669 50.0208 52.2997 50.0208H51.335Z" fill="black"/>
<path d="M57.7652 45.7048V50.9048H61.3347V49.9465H58.8784V48.743H60.8078V47.8293H58.8784V46.663H61.2531V45.7048H57.7652Z" fill="black"/>
<path d="M64.3816 45.7048V46.663H65.8807V50.9048H66.9938V46.663H68.4929V45.7048H64.3816Z" fill="black"/>
<path d="M70.6898 50.9048H71.8401L72.2408 49.7682H74.2148L74.6156 50.9048H75.8104L73.9254 45.7048H72.5896L70.6898 50.9048ZM72.5377 48.8693L73.2204 46.8933L73.9106 48.8693H72.5377Z" fill="black"/>
</svg>
