<svg width="24" height="24" viewBox="0 0 24 24" fill="none" xmlns="http://www.w3.org/2000/svg">
<path d="M16.719 8.78776H16.7115C16.7066 8.78662 16.7021 8.784 16.6987 8.78026C16.6925 8.77348 16.6879 8.76536 16.6853 8.75651C16.6827 8.74767 16.6822 8.73834 16.6838 8.72926L17.1075 6.14101L19.0958 8.12701L17.025 9.00001C17.0193 9.00232 17.0132 9.00359 17.007 9.00376H17.0025C17.0025 9.00376 16.9973 9.00376 16.992 8.99551C16.9144 8.91027 16.8219 8.83987 16.719 8.78776ZM19.602 8.63026L21.7275 10.7535C22.1692 11.1945 22.3898 11.415 22.4708 11.67C22.4827 11.7074 22.4925 11.7455 22.5 11.784L17.421 9.63601H17.4127C17.3925 9.62776 17.3685 9.61801 17.3685 9.59701C17.3685 9.57601 17.3925 9.56626 17.4127 9.55801H17.4188L19.602 8.63026ZM22.413 12.4658C22.2197 12.7551 21.9892 13.0179 21.7275 13.2473L19.332 15.6398L16.233 14.9948H16.2165C16.1895 14.9903 16.1595 14.9858 16.1595 14.9603C16.1475 14.8326 16.1095 14.7087 16.0477 14.5964C15.9859 14.484 15.9017 14.3855 15.8002 14.307C15.7875 14.2943 15.7913 14.2748 15.7943 14.256V14.2485L16.3777 10.674V10.662C16.3777 10.635 16.386 10.6028 16.4115 10.6028C16.5364 10.5872 16.6569 10.547 16.7661 10.4844C16.8753 10.4218 16.971 10.3382 17.0475 10.2383C17.0513 10.2322 17.0564 10.2271 17.0625 10.2233C17.0815 10.2183 17.1017 10.221 17.1188 10.2308L22.413 12.4658ZM18.7808 16.1903L14.841 20.1263L15.516 15.9855V15.9645C15.5212 15.951 15.5355 15.9458 15.5497 15.9398H15.5565C15.704 15.8769 15.8346 15.78 15.9375 15.657C15.9497 15.6404 15.9671 15.6285 15.987 15.6233C15.9922 15.6225 15.9975 15.6225 16.0027 15.6233L18.7808 16.1903ZM14.007 20.9588L13.563 21.4028L8.6535 14.3145L8.6475 14.307C8.63859 14.2983 8.63347 14.2865 8.63325 14.274C8.63496 14.2651 8.63912 14.2568 8.64525 14.25L8.6505 14.2433C8.6655 14.2215 8.67825 14.1998 8.6925 14.1758L8.70375 14.157C8.70989 14.1437 8.7198 14.1325 8.73225 14.1248C8.74511 14.1202 8.75913 14.1202 8.772 14.1248L14.2117 15.2453C14.227 15.2478 14.2414 15.2539 14.2537 15.2633C14.2595 15.2698 14.2631 15.2779 14.2642 15.2865V15.297C14.3034 15.4384 14.3744 15.5689 14.4717 15.6786C14.5691 15.7884 14.6903 15.8743 14.826 15.93C14.841 15.9375 14.8342 15.9548 14.826 15.9728C14.8226 15.9808 14.8198 15.989 14.8177 15.9975C14.7525 16.4123 14.1645 19.9928 14.007 20.9588ZM13.0792 21.885C12.8793 22.127 12.6266 22.3199 12.3405 22.449C12.1253 22.5173 11.8942 22.5173 11.679 22.449C11.4232 22.368 11.2027 22.149 10.761 21.7065L5.8305 16.7813L7.11825 14.7855C7.12359 14.7755 7.131 14.7669 7.14 14.76C7.14785 14.7563 7.15643 14.7543 7.16513 14.7543C7.17382 14.7543 7.1824 14.7563 7.19025 14.76C7.3168 14.799 7.44857 14.8185 7.581 14.8178C7.75507 14.8168 7.92728 14.7819 8.088 14.715C8.09419 14.7112 8.10133 14.7091 8.10862 14.7091C8.11592 14.7091 8.12306 14.7112 8.12925 14.715C8.13489 14.7207 8.14015 14.7267 8.145 14.733L13.0792 21.885ZM5.35425 16.3065L4.224 15.1763L6.45825 14.2245C6.4642 14.2235 6.4703 14.2235 6.47625 14.2245C6.495 14.2245 6.5055 14.2433 6.516 14.2605L6.5235 14.2725C6.5445 14.3048 6.56625 14.3333 6.58725 14.361L6.594 14.37C6.6 14.379 6.594 14.388 6.5895 14.3978L5.35425 16.3065ZM3.72375 14.6768L2.29275 13.2473C2.049 13.0043 1.87275 12.828 1.7505 12.6758L6.1005 13.5758H6.117C6.144 13.5803 6.174 13.5848 6.174 13.6103C6.174 13.6358 6.14175 13.65 6.114 13.6613L6.10125 13.6665L3.72375 14.6768ZM1.5 11.9408C1.5053 11.8486 1.52192 11.7574 1.5495 11.6693C1.6305 11.4143 1.8495 11.1938 2.29275 10.7528L4.125 8.92501C4.425 9.36751 6.42075 12.2445 6.65325 12.5775L6.66075 12.5873C6.67575 12.6075 6.69225 12.6293 6.67575 12.6458C6.59214 12.7329 6.51936 12.8299 6.459 12.9345C6.45282 12.9478 6.44357 12.9593 6.432 12.9683C6.42455 12.9713 6.4162 12.9713 6.40875 12.9683L1.5 11.9408ZM4.614 8.43451L7.07625 5.97451C7.308 6.07576 8.15025 6.43126 8.90325 6.74926C9.474 6.99001 9.99375 7.20976 10.1565 7.27951C10.1646 7.28157 10.1722 7.2853 10.1788 7.29046C10.1854 7.29563 10.1908 7.30212 10.1948 7.30951C10.1981 7.32025 10.1981 7.33177 10.1948 7.34251C10.1784 7.42019 10.1701 7.49937 10.17 7.57876C10.1701 7.86472 10.2821 8.13928 10.482 8.34376C10.4985 8.35951 10.482 8.38351 10.4677 8.40451L10.4602 8.41576L7.9605 12.2843C7.95485 12.2949 7.94691 12.3041 7.93725 12.3113C7.92977 12.3144 7.92174 12.316 7.91363 12.316C7.90551 12.316 7.89748 12.3144 7.89 12.3113C7.79203 12.2856 7.69128 12.272 7.59 12.2708C7.49393 12.2739 7.39831 12.2855 7.30425 12.3053C7.2997 12.3075 7.2947 12.3087 7.28962 12.3087C7.28455 12.3087 7.27955 12.3075 7.275 12.3053C7.26523 12.2975 7.25686 12.2881 7.25025 12.2775L4.614 8.43451ZM7.575 5.47501L10.7632 2.29051C11.205 1.84951 11.4255 1.62901 11.6812 1.54801C11.8965 1.47976 12.1275 1.47976 12.3428 1.54801C12.5985 1.62901 12.819 1.84801 13.2607 2.29051L13.9515 2.98051L11.6827 6.49126C11.6769 6.50131 11.6693 6.51021 11.6602 6.51751C11.6525 6.52103 11.644 6.52285 11.6355 6.52285C11.627 6.52285 11.6185 6.52103 11.6107 6.51751C11.4989 6.48516 11.383 6.46875 11.2665 6.46876C11.0087 6.47091 10.7591 6.55967 10.5577 6.72076C10.5427 6.73501 10.521 6.72601 10.5023 6.72076C10.206 6.58951 7.90275 5.61676 7.575 5.47501ZM14.4323 3.46126L16.5262 5.55301L16.0223 8.67301V8.68126C16.022 8.68847 16.0205 8.69558 16.0178 8.70226C16.0125 8.71351 16.002 8.71576 15.9907 8.71801H15.9788C15.8752 8.7507 15.7776 8.8001 15.69 8.86426L15.6795 8.87401C15.6769 8.87771 15.6736 8.88083 15.6697 8.88315C15.6658 8.88548 15.6615 8.88696 15.657 8.88751C15.6491 8.88818 15.6411 8.88689 15.6337 8.88376L12.444 7.53001H12.4373C12.417 7.52176 12.393 7.51201 12.393 7.49101C12.3749 7.31789 12.3194 7.15077 12.2302 7.00126L12.2235 6.99001C12.2078 6.96451 12.1912 6.93826 12.204 6.91501L14.4323 3.46126ZM12.2753 8.17501L15.2655 9.44026C15.2828 9.44499 15.2976 9.45629 15.3068 9.47176C15.3097 9.48179 15.3097 9.49248 15.3068 9.50251C15.2971 9.54992 15.2918 9.59813 15.291 9.64651V9.73051C15.291 9.75076 15.2693 9.75976 15.2498 9.76801H15.243C14.7697 9.96976 8.592 12.6008 8.583 12.6008C8.57788 12.6014 8.57269 12.6009 8.56777 12.5994C8.56285 12.5978 8.55833 12.5952 8.5545 12.5918C8.538 12.576 8.5545 12.552 8.56875 12.531L8.57625 12.5198L11.034 8.71951L11.0385 8.71276C11.0528 8.68951 11.0692 8.66401 11.0955 8.66401L11.1202 8.66776C11.1713 8.67657 11.223 8.68158 11.2747 8.68276C11.4578 8.68346 11.6381 8.63899 11.7998 8.5533C11.9615 8.46761 12.0996 8.34334 12.2017 8.19151C12.2065 8.1833 12.2126 8.17595 12.2197 8.16976C12.2287 8.16595 12.2385 8.16443 12.2482 8.16535C12.2579 8.16627 12.2672 8.16959 12.2753 8.17501ZM8.85 13.2083L15.5828 10.3403C15.59 10.3409 15.5968 10.3444 15.6015 10.35C15.6322 10.38 15.6648 10.4081 15.699 10.434L15.714 10.4438C15.7275 10.452 15.7417 10.4603 15.7425 10.4745V10.488L15.165 14.025V14.0393C15.165 14.067 15.1575 14.0985 15.1312 14.0985C14.978 14.1091 14.8297 14.1568 14.699 14.2376C14.5683 14.3184 14.4593 14.4297 14.3812 14.562V14.5665C14.3752 14.5794 14.3656 14.5904 14.3535 14.598C14.341 14.6018 14.3277 14.6018 14.3152 14.598L8.946 13.4918C8.946 13.4918 8.856 13.209 8.85 13.2083Z" fill="url(#paint0_linear_940_51)"/>
<defs>
<linearGradient id="paint0_linear_940_51" x1="12" y1="1.50001" x2="12" y2="22.5" gradientUnits="userSpaceOnUse">
<stop stop-color="#21C6B7"/>
<stop offset="1" stop-color="#4C9BBF"/>
</linearGradient>
</defs>
</svg>
