<svg width="22" height="24" viewBox="0 0 22 24" fill="none" xmlns="http://www.w3.org/2000/svg">
<g clip-path="url(#clip0_914_174)">
<path d="M10.6298 23.9554C10.2997 23.9554 9.99156 23.8674 9.70547 23.7134L6.77838 21.9747C6.33824 21.7327 6.55831 21.6446 6.69035 21.6006C7.28454 21.4026 7.39457 21.3585 8.01077 21.0064C8.07687 20.9623 8.1649 20.9843 8.23084 21.0284L10.4757 22.3709C10.5637 22.4149 10.6738 22.4149 10.7398 22.3709L19.521 17.2871C19.609 17.2431 19.653 17.1551 19.653 17.045V6.89934C19.653 6.7893 19.609 6.70127 19.521 6.65726L10.7398 1.59542C10.6518 1.5514 10.5417 1.5514 10.4757 1.59542L1.69453 6.65734C1.60651 6.70136 1.56249 6.81139 1.56249 6.89942V17.045C1.56249 17.1331 1.60651 17.2431 1.69453 17.2871L4.09345 18.6735C5.39194 19.3337 6.20612 18.5635 6.20612 17.7933V7.77961C6.20612 7.64757 6.31624 7.51553 6.47028 7.51553H7.59272C7.72476 7.51553 7.8568 7.62556 7.8568 7.77961V17.7932C7.8568 19.5318 6.91042 20.5441 5.25982 20.5441C4.75366 20.5441 4.35754 20.5441 3.23518 19.994L0.924291 18.6735C0.352111 18.3433 0 17.7272 0 17.0669V6.92143C0 6.26122 0.352111 5.64502 0.924291 5.31484L9.70547 0.231073C10.2556 -0.0770242 11.0039 -0.0770242 11.554 0.231073L20.3352 5.31484C20.9074 5.64494 21.2595 6.26113 21.2595 6.92143V17.067C21.2595 17.7272 20.9074 18.3434 20.3352 18.6735L11.554 23.7575C11.268 23.8895 10.9379 23.9555 10.6298 23.9555V23.9554ZM13.3367 16.9789C9.48531 16.9789 8.69307 15.2184 8.69307 13.7218C8.69307 13.5898 8.8031 13.4577 8.95715 13.4577H10.1015C10.2336 13.4577 10.3437 13.5458 10.3437 13.6778C10.5197 14.8442 11.0259 15.4164 13.3587 15.4164C15.2074 15.4164 15.9997 14.9983 15.9997 14.008C15.9997 13.4357 15.7796 13.0176 12.8966 12.7314C10.4977 12.4893 9.00116 11.9612 9.00116 10.0466C9.00116 8.26385 10.4976 7.20752 13.0066 7.20752C15.8236 7.20752 17.2101 8.17582 17.3861 10.2886C17.3861 10.3546 17.3641 10.4206 17.3201 10.4866C17.2761 10.5306 17.2101 10.5747 17.1441 10.5747H15.9997C15.8896 10.5747 15.7796 10.4866 15.7575 10.3766C15.4935 9.16621 14.8112 8.77009 13.0066 8.77009C10.982 8.77009 10.7398 9.47431 10.7398 10.0025C10.7398 10.6408 11.0259 10.8387 13.7548 11.1909C16.4618 11.543 17.7382 12.0492 17.7382 13.9419C17.7162 15.8786 16.1317 16.9789 13.3367 16.9789Z" fill="#539E43"/>
</g>
<defs>
<clipPath id="clip0_914_174">
<rect width="21.2595" height="24" fill="white"/>
</clipPath>
</defs>
</svg>
