<svg width="24" height="24" viewBox="0 0 24 24" fill="none" xmlns="http://www.w3.org/2000/svg">
<path d="M5.2128 4.98732C5.8848 5.53292 6.136 5.49132 7.3984 5.40652L19.2912 4.69292C19.544 4.69292 19.3344 4.44172 19.2496 4.40012L17.2736 2.97132C16.896 2.67692 16.392 2.34092 15.4256 2.42572L3.9088 3.26572C3.4896 3.30732 3.4048 3.51692 3.5728 3.68492L5.2128 4.98732ZM5.9264 7.75852V20.2721C5.9264 20.9441 6.2624 21.1969 7.0192 21.1553L20.0912 20.3985C20.8464 20.3569 20.9312 19.8945 20.9312 19.3489V6.91852C20.9312 6.37452 20.7216 6.07852 20.2592 6.12012L6.5984 6.91852C6.0944 6.96012 5.9264 7.21292 5.9264 7.75852ZM18.8304 8.43052C18.9136 8.80812 18.8304 9.18572 18.4512 9.22892L17.8208 9.35372V18.5921C17.2752 18.8865 16.7696 19.0561 16.3488 19.0561C15.6768 19.0561 15.5088 18.8449 15.0048 18.2145L10.8848 11.7473V18.0049L12.1888 18.2993C12.1888 18.2993 12.1888 19.0545 11.1376 19.0545L8.2384 19.2225C8.1536 19.0545 8.2384 18.6353 8.5328 18.5505L9.288 18.3425V10.0673L8.24 9.98412C8.1552 9.60652 8.3648 9.06092 8.9536 9.01772L12.064 8.80972L16.352 15.3601V9.56492L15.2592 9.43852C15.1744 8.97612 15.5104 8.64012 15.9312 8.59852L18.832 8.43052H18.8304ZM2.9424 2.13132L14.9216 1.24972C16.392 1.12172 16.7696 1.20812 17.6944 1.88012L21.5184 4.56812C22.1504 5.02892 22.36 5.15532 22.36 5.65932V20.3985C22.36 21.3233 22.024 21.8705 20.8464 21.9521L6.936 22.7921C6.0528 22.8353 5.632 22.7089 5.1696 22.1201L2.3536 18.4673C1.8496 17.7953 1.64 17.2913 1.64 16.7025V3.60012C1.64 2.84492 1.976 2.21452 2.9424 2.13132Z" fill="white"/>
</svg>
