<svg width="27" height="24" viewBox="0 0 27 24" fill="none" xmlns="http://www.w3.org/2000/svg">
<g clip-path="url(#clip0_940_73)">
<path d="M13.2414 0L5.7781 0.789103L0 8.54555L13.2414 23.965L26.4828 8.54555L20.7048 0.789103L13.2414 0Z" fill="#FDB300"/>
<path d="M0 8.54565L13.2414 23.965L5.36338 8.54565H0ZM21.1193 8.54565L13.2414 23.965L26.4827 8.54565H21.1193Z" fill="#EB6C00"/>
<path d="M5.36338 8.54565L13.2414 23.965L21.1194 8.54565H5.36338Z" fill="#FDAD00"/>
<path d="M5.7781 0.789103L5.36338 8.54555L13.2414 0L5.7781 0.789103ZM21.1193 8.54566L20.7047 0.789103L13.2414 0.000103448L21.1193 8.54566Z" fill="#FDD231"/>
<path d="M21.1194 8.54561H26.4827L20.7047 0.789062L21.1194 8.54561ZM0 8.54561H5.36338L5.7781 0.789062L0 8.54561Z" fill="#FDAD00"/>
<path d="M13.2414 0L5.36338 8.54555H21.1194L13.2414 0Z" fill="#FEEEB7"/>
</g>
<defs>
<clipPath id="clip0_940_73">
<rect width="26.4828" height="24" fill="white"/>
</clipPath>
</defs>
</svg>
