<svg width="24" height="24" viewBox="0 0 24 24" fill="none" xmlns="http://www.w3.org/2000/svg">
<g clip-path="url(#clip0_940_56)">
<path d="M5.04759 15.1238C5.04759 16.5143 3.92381 17.6382 2.53331 17.6382C1.14281 17.6382 0.0190315 16.5143 0.0190315 15.1238C0.0190315 13.7334 1.14281 12.6096 2.53341 12.6096H5.0475V15.1239L5.04759 15.1238ZM6.30478 15.1238C6.30478 13.7334 7.42856 12.6096 8.81906 12.6096C10.2096 12.6096 11.3333 13.7334 11.3333 15.1239V21.4096C11.3333 22.8001 10.2096 23.9239 8.81897 23.9239C7.42866 23.9239 6.30478 22.8001 6.30478 21.4096V15.1238Z" fill="#E01E5A"/>
<path d="M8.81906 5.02856C7.42856 5.02856 6.30469 3.90478 6.30469 2.51428C6.30469 1.12378 7.42866 0 8.81906 0C10.2095 0 11.3333 1.12378 11.3333 2.51428V5.02866H8.81897L8.81906 5.02856ZM8.81906 6.30478C10.2096 6.30478 11.3333 7.42856 11.3333 8.81906C11.3333 10.2096 10.2096 11.3333 8.81897 11.3333H2.51437C1.12378 11.3333 0 10.2096 0 8.81897C0 7.42866 1.12378 6.30478 2.51428 6.30478H8.81906Z" fill="#36C5F0"/>
<path d="M18.8953 8.81906C18.8953 7.42856 20.0191 6.30469 21.4095 6.30469C22.8 6.30469 23.9239 7.42856 23.9239 8.81906C23.9239 10.2096 22.8 11.3333 21.4095 11.3333H18.8953V8.81906ZM17.6381 8.81906C17.6381 10.2096 16.5143 11.3333 15.1238 11.3333C13.7333 11.3333 12.6096 10.2096 12.6096 8.81897V2.51437C12.6096 1.12378 13.7333 0 15.1238 0C16.5142 0 17.638 1.12378 17.638 2.51428V8.81897L17.6381 8.81906Z" fill="#2EB67D"/>
<path d="M15.1238 18.8954C16.5143 18.8954 17.6381 20.0192 17.6381 21.4096C17.6381 22.8001 16.5143 23.9239 15.1238 23.9239C13.7333 23.9239 12.6096 22.8001 12.6096 21.4096V18.8954H15.1238ZM15.1238 17.6382C13.7333 17.6382 12.6096 16.5143 12.6096 15.1238C12.6096 13.7334 13.7333 12.6096 15.1238 12.6096H21.4285C22.819 12.6096 23.9429 13.7334 23.9429 15.1239C23.9429 16.5143 22.819 17.6382 21.4285 17.6382H15.1238Z" fill="#ECB22E"/>
</g>
<defs>
<clipPath id="clip0_940_56">
<rect width="24" height="24" fill="white"/>
</clipPath>
</defs>
</svg>
