<svg width="24" height="24" viewBox="0 0 24 24" fill="none" xmlns="http://www.w3.org/2000/svg">
<g clip-path="url(#clip0_14_29)">
<path d="M5.04761 15.1237C5.04761 16.5142 3.92382 17.6381 2.53332 17.6381C1.14282 17.6381 0.019043 16.5142 0.019043 15.1237C0.019043 13.7333 1.14282 12.6096 2.53342 12.6096H5.04751V15.1238L5.04761 15.1237ZM6.30479 15.1237C6.30479 13.7333 7.42857 12.6096 8.81907 12.6096C10.2096 12.6096 11.3334 13.7333 11.3334 15.1238V21.4095C11.3334 22.8 10.2096 23.9239 8.81898 23.9239C7.42867 23.9239 6.30479 22.8 6.30479 21.4095V15.1238V15.1237Z" fill="#E01E5A"/>
<path d="M8.81906 5.02856C7.42856 5.02856 6.30469 3.90478 6.30469 2.51428C6.30469 1.12378 7.42866 0 8.81906 0C10.2095 0 11.3333 1.12378 11.3333 2.51428V5.02866H8.81897L8.81906 5.02856ZM8.81906 6.30478C10.2096 6.30478 11.3333 7.42856 11.3333 8.81906C11.3333 10.2096 10.2096 11.3333 8.81897 11.3333H2.51437C1.12378 11.3333 0 10.2096 0 8.81897C0 7.42866 1.12378 6.30478 2.51428 6.30478H8.81897H8.81906Z" fill="#36C5F0"/>
<path d="M18.8953 8.81906C18.8953 7.42856 20.0191 6.30469 21.4095 6.30469C22.8 6.30469 23.9239 7.42856 23.9239 8.81906C23.9239 10.2096 22.8 11.3333 21.4095 11.3333H18.8953V8.81897V8.81906ZM17.6381 8.81906C17.6381 10.2096 16.5142 11.3333 15.1237 11.3333C13.7333 11.3333 12.6096 10.2096 12.6096 8.81897V2.51437C12.6096 1.12378 13.7333 0 15.1237 0C16.5142 0 17.638 1.12378 17.638 2.51428V8.81897L17.6381 8.81906Z" fill="#2EB67D"/>
<path d="M15.1237 18.8953C16.5142 18.8953 17.6381 20.0191 17.6381 21.4095C17.6381 22.8 16.5142 23.9239 15.1237 23.9239C13.7333 23.9239 12.6096 22.8 12.6096 21.4095V18.8953H15.1238H15.1237ZM15.1237 17.6381C13.7333 17.6381 12.6096 16.5142 12.6096 15.1237C12.6096 13.7333 13.7333 12.6096 15.1238 12.6096H21.4285C22.819 12.6096 23.9429 13.7333 23.9429 15.1238C23.9429 16.5142 22.819 17.6381 21.4285 17.6381H15.1238H15.1237Z" fill="#ECB22E"/>
</g>
<defs>
<clipPath id="clip0_14_29">
<rect width="24" height="24" fill="white"/>
</clipPath>
</defs>
</svg>
